<?xml version="1.0" encoding="utf-8"?>
<svg xmlns="http://www.w3.org/2000/svg" viewBox="0 0 50 50" width="41" height="41">
  <path d="M41.625 10.769531C37.644531 7.566406 31.347656 7.023438 31.078125 7.003906C30.660156 6.96875 30.261719 7.203125 30.089844 7.589844C30.074219 7.613281 29.9375 7.929688 29.785156 8.421875C32.417969 8.867188 35.652344 9.761719 38.578125 11.578125C39.046875 11.867188 39.191406 12.484375 38.902344 12.953125C38.710938 13.261719 38.386719 13.429688 38.050781 13.429688C37.871094 13.429688 37.6875 13.378906 37.523438 13.277344C32.492188 10.15625 26.210938 10 25 10C23.789063 10 17.503906 10.15625 12.476563 13.277344C12.007813 13.570313 11.390625 13.425781 11.101563 12.957031C10.808594 12.484375 10.953125 11.871094 11.421875 11.578125C14.347656 9.765625 17.582031 8.867188 20.214844 8.425781C20.0625 7.929688 19.925781 7.617188 19.914063 7.589844C19.738281 7.203125 19.34375 6.960938 18.921875 7.003906C18.652344 7.023438 12.355469 7.566406 8.320313 10.8125C6.214844 12.761719 2 24.152344 2 34C2 34.175781 2.046875 34.34375 2.132813 34.496094C5.039063 39.605469 12.972656 40.941406 14.78125 41C14.789063 41 14.800781 41 14.8125 41C15.132813 41 15.433594 40.847656 15.621094 40.589844L17.449219 38.074219C12.515625 36.800781 9.996094 34.636719 9.851563 34.507813C9.4375 34.144531 9.398438 33.511719 9.765625 33.097656C10.128906 32.683594 10.761719 32.644531 11.175781 33.007813C11.234375 33.0625 15.875 37 25 37C34.140625 37 38.78125 33.046875 38.828125 33.007813C39.242188 32.648438 39.871094 32.683594 40.238281 33.101563C40.601563 33.515625 40.5625 34.144531 40.148438 34.507813C40.003906 34.636719 37.484375 36.800781 32.550781 38.074219L34.378906 40.589844C34.566406 40.847656 34.867188 41 35.1875 41C35.199219 41 35.210938 41 35.21875 41C37.027344 40.941406 44.960938 39.605469 47.867188 34.496094C47.953125 34.34375 48 34.175781 48 34C48 24.152344 43.785156 12.761719 41.625 10.769531 Z M 18.5 30C16.566406 30 15 28.210938 15 26C15 23.789063 16.566406 22 18.5 22C20.433594 22 22 23.789063 22 26C22 28.210938 20.433594 30 18.5 30 Z M 31.5 30C29.566406 30 28 28.210938 28 26C28 23.789063 29.566406 22 31.5 22C33.433594 22 35 23.789063 35 26C35 28.210938 33.433594 30 31.5 30Z" fill="#FFFFFF" />
</svg>