<svg xmlns="http://www.w3.org/2000/svg" width="38.962" height="38.962" viewBox="0 0 38.962 38.962">
  <path id="icons8_Instagram" d="M13.823,3A10.824,10.824,0,0,0,3,13.823V31.139A10.824,10.824,0,0,0,13.823,41.962H31.139A10.824,10.824,0,0,0,41.962,31.139V13.823A10.824,10.824,0,0,0,31.139,3ZM35.468,7.329A2.165,2.165,0,1,1,33.3,9.494,2.165,2.165,0,0,1,35.468,7.329ZM22.481,11.658A10.823,10.823,0,1,1,11.658,22.481,10.824,10.824,0,0,1,22.481,11.658Zm0,4.329a6.494,6.494,0,1,0,6.494,6.494,6.494,6.494,0,0,0-6.494-6.494Z" transform="translate(-3 -3)" fill="#fff"/>
</svg>
