<svg xmlns="http://www.w3.org/2000/svg" width="33.764" height="14.704" viewBox="0 0 33.764 14.704">
  <g id="Group_44" data-name="Group 44" transform="translate(-293.236 -660.648)">
    <text id="BSC" transform="translate(310 672)" fill="#102d40" font-size="9" font-family="SegoeUI-Bold, Segoe UI" font-weight="700"><tspan x="0" y="0">BSC</tspan></text>
    <g id="Layer_1" data-name="Layer 1" transform="translate(293.236 660.648)">
      <path id="Path_9" data-name="Path 9" d="M4.5,6.179,7.352,3.323,10.209,6.18l1.662-1.662L7.352,0,2.835,4.517,4.5,6.179M0,7.352,1.662,5.69,3.323,7.352,1.662,9.013ZM4.5,8.525l2.856,2.855,2.857-2.857,1.662,1.661h0L7.352,14.7,2.835,10.187l0,0L4.5,8.525m6.884-1.173,1.662-1.662L14.7,7.353,13.043,9.014Z" fill="#f3ba2f"/>
      <path id="Path_10" data-name="Path 10" d="M966.562,964.876h0l-1.686-1.686-1.246,1.246h0l-.143.143-.3.3,0,0,0,0,1.685,1.685,1.686-1.686h0" transform="translate(-957.525 -957.525)" fill="#f3ba2f"/>
    </g>
  </g>
</svg>
