<svg id="Group_29" data-name="Group 29" xmlns="http://www.w3.org/2000/svg" width="30" height="29" viewBox="0 0 30 29">
  <path id="icons8_ethereum" d="M14.538,1a.952.952,0,0,0-.76.416L6.165,12.579a.952.952,0,0,0,.361,1.388l7.613,3.8a.952.952,0,0,0,.851,0l7.613-3.8a.952.952,0,0,0,.361-1.388L15.35,1.416A.952.952,0,0,0,14.538,1Zm.026,2.639v6.877l6.2,2.241-6.2,3.1V10.516L8.451,12.6ZM6.916,16.225a.952.952,0,0,0-.708,1.546l7.613,9.516a.952.952,0,0,0,1.487,0l7.613-9.516a.952.952,0,0,0-1.169-1.446L14.564,19.92,7.377,16.326A.952.952,0,0,0,6.916,16.225ZM10.4,19.966l3.736,1.868a.952.952,0,0,0,.426.1v3.234Z" transform="translate(0.078 0.52)" fill="#fff"/>
  <rect id="Rectangle_58" data-name="Rectangle 58" width="30" height="29" fill="none"/>
</svg>
