<svg xmlns="http://www.w3.org/2000/svg" width="180.32" height="91.274" viewBox="0 0 180.32 91.274">
  <g id="Group_43" data-name="Group 43" transform="translate(-312.68 -44.506)">
    <g id="Group_1" data-name="Group 1" transform="translate(312.68 44.506)">
      <path id="Path_1" data-name="Path 1" d="M163.538,47.1V2.38c0-.965,0-.98-.98-.98h-7.084c-.965,0-.965,0-.965.995V59.76a9.119,9.119,0,0,1-.06,1.281,4.85,4.85,0,0,1-5.788,4.205,5.975,5.975,0,0,1-4.039-3.225Q134.743,45,124.863,27.987c-2.577-4.446-5.14-8.908-7.762-13.339a4.855,4.855,0,0,0-1.583-1.643,1.9,1.9,0,0,0-2.864,1.477,5.085,5.085,0,0,0-.03.829V59.729c0,.377,0,.754-.03,1.13h0a5.577,5.577,0,0,1-5.893,5.893H84.786a27.145,27.145,0,0,1-2.8-54.17c4.039-.317,8.124-.121,12.193-.151H96.3c.015-.347.045-.588.045-.829,0-2.457-.015-4.914.015-7.37.015-.663-.166-.859-.844-.844-3.768.03-7.536-.03-11.289.03a37.885,37.885,0,0,0-5.547.452A36.205,36.205,0,0,0,51.7,54.906H49.351c-4.22,0-8.44.015-12.646,0a17.254,17.254,0,0,1-2.924-.226A15.239,15.239,0,0,1,35.53,24.43c3.889-.121,7.777-.045,11.666-.03.678,0,.859-.2.844-.859q-.045-3.685,0-7.37c.015-.633-.136-.874-.829-.859-3.738.03-7.476-.03-11.214.045a24.935,24.935,0,0,0-4.853.543,24.273,24.273,0,0,0,4.175,48c7.1.106,15.132.045,22.4.03a37.643,37.643,0,0,0,2.924,2.879H36.419a27.145,27.145,0,0,1-2.8-54.17c4.039-.317,8.124-.121,12.193-.151h2.125c.015-.347.045-.588.045-.829,0-2.457-.015-4.914.015-7.37.015-.663-.166-.859-.844-.844-3.768.03-7.536-.03-11.289.03a37.885,37.885,0,0,0-5.547.452A36.182,36.182,0,0,0,34.867,75.8c7.9.241,53.868.06,61.766.045v-.015c3.421-.015,6.843-.06,10.279-.06a23.1,23.1,0,0,0,3.678-.271c5.155-.859,8.757-3.647,10.264-8.742a19.335,19.335,0,0,0,.754-5.336c.015-6.873.03-14.56.03-21.433v-.754a.759.759,0,0,1,.362.3q6.9,11.869,13.791,23.754a24.926,24.926,0,0,0,6.466,7.928A13.134,13.134,0,0,0,157.027,72.3c4.356-2.592,6.406-6.6,6.481-11.591C163.6,56.172,163.538,51.636,163.538,47.1Z" transform="translate(0.012 -1.206)" fill="#fff"/>
      <path id="Path_2" data-name="Path 2" d="M440.308,53.739c-4.22,0-11.545.015-15.766,0a17.253,17.253,0,0,1-2.924-.226,15.239,15.239,0,0,1,1.748-30.25c3.889-.121,7.777-.045,11.666-.03.678,0,.859-.2.844-.859q-.045-3.685,0-7.37c.015-.633-.136-.874-.829-.859-3.738.03-7.476-.03-11.214.045a24.933,24.933,0,0,0-4.853.543,24.293,24.293,0,0,0,4.205,48.035c7.807.121,15.615.03,23.422.015a2.591,2.591,0,0,0,2.517-1.9,4.947,4.947,0,0,0,.121-1.341h0c.015-14.8.015-30.144.015-44.945a10.749,10.749,0,0,1,.03-1.206,4.85,4.85,0,0,1,7.416-3.8,6.829,6.829,0,0,1,2.381,2.562q13.452,23.174,26.9,46.332a13.381,13.381,0,0,0,1.417,2.125,2.063,2.063,0,0,0,2.5.693,2.122,2.122,0,0,0,1.266-2.2V1.137c0-.573-.136-.784-.754-.769-2.592.03-5.17.015-7.762.015-.166,0-.332.045-.588.075V35.185c-.271-.422-.422-.648-.558-.874q-6.737-11.621-13.49-23.226a28.224,28.224,0,0,0-4.748-6.556c-2.969-2.849-6.436-4.582-10.611-4.4A12.988,12.988,0,0,0,440.2,13.255V28.689C440.233,30.769,440.308,51.644,440.308,53.739Z" transform="translate(-339.518 -0.114)" fill="#fff"/>
    </g>
    <text id="C_R_Y_P_T_O_-_C_U_R_R_E_N_C_Y_-_N_E_T_W_O_R_K_" data-name="C R Y P T O - C U R R E N C Y  -  N E T W O R K " transform="translate(314 133.78)" fill="#fff" font-size="8" font-family="SegoeUIBlack, Segoe UI"><tspan x="0" y="0" xml:space="preserve">C R Y P T O - C U R R E N C Y  -  N E T W O R K </tspan></text>
  </g>
</svg>
