<svg xmlns="http://www.w3.org/2000/svg" width="42" height="42" viewBox="0 0 42 42">
  <g id="Group_54" data-name="Group 54" transform="translate(-291 -46)">
    <circle id="Ellipse_33" data-name="Ellipse 33" cx="21" cy="21" r="21" transform="translate(291 46)" fill="#a60303"/>
    <g id="pancakeswap" transform="translate(299.517 54.404)">
      <path id="Path_12" data-name="Path 12" d="M15.937,7.391h2.781V7.1c0-1.267-.009-2.536,0-3.8A3.31,3.31,0,0,1,21.9.035a3.406,3.406,0,0,1,3.39,4.106c-.278,1.458-.53,2.918-.8,4.377-.04.212.042.292.222.373a10.15,10.15,0,0,1,3.915,2.965,5.711,5.711,0,0,1,1.264,3.719,20.566,20.566,0,0,1-.1,2.548,6.362,6.362,0,0,1-2.62,4.1A13.921,13.921,0,0,1,20.894,24.9a19.184,19.184,0,0,1-9.166-.527,11.349,11.349,0,0,1-5.086-3.051,6.037,6.037,0,0,1-1.717-4.358,21.524,21.524,0,0,1,.1-2.517,6.134,6.134,0,0,1,2.06-3.618A10.5,10.5,0,0,1,10,8.91c.217-.1.285-.184.238-.439-.292-1.526-.56-3.054-.833-4.584a3.284,3.284,0,1,1,6.513-.756c.044,1.306.016,2.613.019,3.922C15.937,7.167,15.937,7.284,15.937,7.391Zm3.791,1.026A21.423,21.423,0,0,0,15.3,8.408c-.4.056-.4.042-.4-.35q0-2.243,0-4.486a3.42,3.42,0,0,0-.035-.709,2.26,2.26,0,0,0-4.435.875q.465,2.74.977,5.473c.044.238-.035.308-.226.383a10.717,10.717,0,0,0-3,1.722A5.5,5.5,0,0,0,6.027,14.66a19,19,0,0,0-.1,2.251,5.2,5.2,0,0,0,1.726,4.05,11.228,11.228,0,0,0,4.878,2.662,17.683,17.683,0,0,0,7.535.464A14.194,14.194,0,0,0,25.317,22.3c2.4-1.421,3.812-3.408,3.623-6.31-.019-.287-.1-.567-.131-.854A5.27,5.27,0,0,0,27.657,12.3a7.56,7.56,0,0,0-2.242-1.88c-.688-.385-1.407-.719-2.132-1.085,0,.019-.007,0,0-.021q.458-2.534.917-5.062A3.473,3.473,0,0,0,24.251,2.7,2.3,2.3,0,0,0,21.708.98a2.277,2.277,0,0,0-1.967,2.31c.012,1.624,0,3.25,0,4.873C19.746,8.24,19.735,8.317,19.728,8.417Z" transform="translate(-4.923 -0.027)" fill="#fff"/>
      <path id="Path_13" data-name="Path 13" d="M668.9,557.168a2.214,2.214,0,0,1,.408-1.425,1.013,1.013,0,0,1,1.754,0,2.607,2.607,0,0,1,.026,2.8,1.021,1.021,0,0,1-1.792.021A2.167,2.167,0,0,1,668.9,557.168Z" transform="translate(-653.409 -542.285)" fill="#fff"/>
      <path id="Path_14" data-name="Path 14" d="M294.108,557.123a2.189,2.189,0,0,1,.429-1.449,1.007,1.007,0,0,1,1.719.014,2.585,2.585,0,0,1,0,2.87,1.007,1.007,0,0,1-1.719.014A2.268,2.268,0,0,1,294.108,557.123Z" transform="translate(-287.359 -542.247)" fill="#fff"/>
    </g>
  </g>
</svg>
