<?xml version="1.0" encoding="utf-8"?>
<svg xmlns="http://www.w3.org/2000/svg" viewBox="0 0 30 30" width="52" height="52">
  <path d="M24 4C22.891 4 21.931109 4.6117656 21.412109 5.5097656C23.183109 6.2907656 24.507719 7.9035625 24.886719 9.8515625C26.106719 9.4705625 27 8.344 27 7C27 5.346 25.654 4 24 4 z M 19 7 A 4 4 0 0 0 15 11 A 4 4 0 0 0 19 15 A 4 4 0 0 0 23 11 A 4 4 0 0 0 19 7 z M 8 14 A 3 3 0 0 0 6.8828125 14.216797L2 16L2 24L6.2207031 22.166016C6.7187031 21.950016 7.2821563 21.942438 7.7851562 22.148438L16.849609 25.851562C16.849609 25.851562 16.853494 25.851563 16.853516 25.851562 A 1.5 1.5 0 0 0 17.5 26 A 1.5 1.5 0 0 0 18.238281 25.802734C18.238413 25.802691 18.244057 25.802776 18.244141 25.802734L27.230469 20.810547L27.228516 20.808594 A 1.5 1.5 0 0 0 28 19.5 A 1.5 1.5 0 0 0 26.5 18 A 1.5 1.5 0 0 0 25.863281 18.144531L25.863281 18.142578L19 21L17.5 21 A 1.5 1.5 0 0 0 19 19.5 A 1.5 1.5 0 0 0 17.964844 18.074219L17.964844 18.072266L9.2714844 14.28125L9.2597656 14.28125 A 3 3 0 0 0 8 14 z" fill="#FFFFFF" />
</svg>