<svg xmlns="http://www.w3.org/2000/svg" width="163.57" height="74.715" viewBox="0 0 163.57 74.715">
  <g id="CCN" transform="translate(0)">
    <path id="Union_1" data-name="Union 1" d="M-403.55-7063.134a36.137,36.137,0,0,1-34.411-30.31A36.174,36.174,0,0,1-408.1-7135a37.985,37.985,0,0,1,5.546-.453c2.134-.034,4.274-.031,6.417-.025,1.623,0,3.248.007,4.873-.005.677-.014.858.183.844.846-.03,2.456-.014,4.914-.014,7.37,0,.242-.03.482-.047.83h-2.125c-1.249.009-2.5,0-3.749-.016-2.823-.027-5.645-.054-8.445.167a27.071,27.071,0,0,0-24.3,22.879,27.2,27.2,0,0,0,27.1,31.29h24.221A37.614,37.614,0,0,1-380.7-7075c-7.266.015-15.3.075-22.4-.03a24.275,24.275,0,0,1-22.412-17.333,24.244,24.244,0,0,1,18.236-30.672,25.075,25.075,0,0,1,4.855-.543c2.236-.046,4.473-.041,6.709-.038,1.5,0,3,0,4.5-.007.7-.015.846.226.829.86q-.046,3.684,0,7.37c.016.663-.165.86-.844.86-3.889-.016-7.776-.091-11.665.029a15.182,15.182,0,0,0-14.259,12.661,15.2,15.2,0,0,0,12.511,17.59,17.167,17.167,0,0,0,2.924.226c4.206.016,8.425,0,12.645,0h2.352a36.035,36.035,0,0,1-2.925-9.5,36.164,36.164,0,0,1,29.9-41.539,37.739,37.739,0,0,1,5.548-.451c2.144-.036,4.294-.031,6.445-.025,1.612,0,3.228.007,4.844-.005.677-.016.858.181.844.844-.03,2.458-.016,4.914-.016,7.37,0,.242-.03.484-.045.83h-2.125c-1.249.009-2.5,0-3.746-.014-2.825-.027-5.648-.054-8.448.165a27.073,27.073,0,0,0-24.3,22.879,27.2,27.2,0,0,0,27.1,31.29h21.916a5.576,5.576,0,0,0,5.892-5.892c.03-.378.03-.754.03-1.13v-44.419a5.115,5.115,0,0,1,.03-.828,1.9,1.9,0,0,1,2.864-1.478,4.856,4.856,0,0,1,1.582,1.643c2.623,4.432,5.184,8.893,7.762,13.339q9.88,17,19.761,34.032a5.966,5.966,0,0,0,4.04,3.227,4.849,4.849,0,0,0,5.786-4.206,9.015,9.015,0,0,0,.061-1.281v-57.365c0-.994,0-.994.966-.994h7.083c.98,0,.98.016.98.98v44.72c0,4.536.061,9.074-.03,13.609-.075,4.989-2.125,9-6.481,11.592a13.134,13.134,0,0,1-14.77-1.085,24.943,24.943,0,0,1-6.467-7.929q-6.874-11.893-13.79-23.753a.761.761,0,0,0-.362-.3v.752c0,6.874-.016,14.561-.03,21.434a19.373,19.373,0,0,1-.754,5.334c-1.507,5.095-5.109,7.884-10.265,8.742a23,23,0,0,1-3.678.272c-3.436,0-6.857.045-10.279.059v.016c-4.8.009-23.63.079-39.454.079C-391.472-7063.011-400.449-7063.04-403.55-7063.134Zm48.788-11.938a24.273,24.273,0,0,1-22.412-17.333,24.257,24.257,0,0,1,18.208-30.7,25.041,25.041,0,0,1,4.853-.543c2.236-.046,4.473-.041,6.709-.038,1.5,0,3,0,4.505-.007.693-.015.844.226.828.86q-.046,3.683,0,7.37c.016.663-.165.86-.844.86-3.889-.016-7.776-.091-11.665.029a15.182,15.182,0,0,0-14.259,12.661,15.2,15.2,0,0,0,12.511,17.589,17.318,17.318,0,0,0,2.924.226c4.22.016,11.545,0,15.766,0,0-2.1-.075-22.971-.106-25.051v-15.433a12.988,12.988,0,0,1,12.464-13.129c4.176-.181,7.642,1.553,10.612,4.4a28.22,28.22,0,0,1,4.747,6.556q6.736,11.622,13.489,23.227c.136.226.287.452.557.875v-34.728c.258-.029.423-.076.589-.076,2.592,0,5.17.016,7.762-.014.618-.014.752.2.752.769v57.967a2.122,2.122,0,0,1-1.265,2.2,2.066,2.066,0,0,1-2.5-.693,13.429,13.429,0,0,1-1.417-2.126q-13.476-23.149-26.9-46.332a6.839,6.839,0,0,0-2.383-2.562,4.85,4.85,0,0,0-7.414,3.8,10.426,10.426,0,0,0-.03,1.206c0,14.8,0,30.146-.016,44.946a4.967,4.967,0,0,1-.12,1.342,2.591,2.591,0,0,1-2.517,1.9c-4.778.01-9.557.047-14.336.047C-348.7-7075.011-351.734-7075.025-354.762-7075.072Z" transform="translate(438.43 7137.726)" fill="#fff"/>
  </g>
</svg>
