<?xml version="1.0" encoding="utf-8"?>
<svg xmlns="http://www.w3.org/2000/svg" viewBox="0 0 26 26" width="126" height="126">
  <path d="M10.28125 0C9.835938 0.0820313 9.503906 0.457031 9.46875 0.90625C9.175781 4.210938 7.261719 6.375 5.21875 8.75C3.175781 11.125 1 13.746094 1 17.65625C1 20.355469 2.222656 22.484375 3.8125 23.875C5.402344 25.265625 7.320313 26 9 26C9.359375 26.003906 9.695313 25.816406 9.878906 25.503906C10.058594 25.191406 10.058594 24.808594 9.878906 24.496094C9.695313 24.183594 9.359375 23.996094 9 24C7.929688 24 6.347656 23.449219 5.125 22.375C3.902344 21.300781 3 19.765625 3 17.65625C3 14.480469 4.71875 12.425781 6.75 10.0625C8.46875 8.0625 10.324219 5.824219 11.09375 2.78125C18.0625 7.867188 21 12.941406 21 16.625C21 20.28125 18.722656 23.210938 16.625 24.0625C16.105469 24.269531 15.855469 24.855469 16.0625 25.375C16.269531 25.894531 16.855469 26.144531 17.375 25.9375C20.417969 24.703125 23 21.082031 23 16.625C23 11.683594 19.3125 5.800781 11.03125 0.1875C10.839844 0.0507813 10.609375 -0.015625 10.375 0C10.34375 0 10.3125 0 10.28125 0 Z M 12.25 7.6875C11.972656 7.71875 11.71875 7.863281 11.550781 8.089844C11.386719 8.316406 11.320313 8.601563 11.375 8.875C11.675781 10.605469 11.75 12.003906 11.65625 13.03125C11.5625 14.058594 11.269531 14.671875 11.09375 14.875C10.917969 15.078125 11.03125 15.058594 10.75 14.9375C10.46875 14.816406 9.898438 14.371094 9.3125 13.46875C9.136719 13.199219 8.839844 13.03125 8.515625 13.019531C8.195313 13.007813 7.886719 13.152344 7.6875 13.40625C5.746094 16.023438 5.765625 18.292969 6.5 19.75C7.234375 21.207031 8.53125 21.875 8.53125 21.875C8.847656 22.097656 9.261719 22.117188 9.601563 21.929688C9.9375 21.738281 10.132813 21.371094 10.105469 20.984375C10.078125 20.597656 9.828125 20.265625 9.46875 20.125C9.46875 20.125 8.703125 19.707031 8.28125 18.875C7.960938 18.242188 8.023438 17.214844 8.65625 15.875C9.054688 16.277344 9.503906 16.582031 9.96875 16.78125C10.851563 17.160156 11.996094 16.914063 12.625 16.1875C13.253906 15.460938 13.511719 14.484375 13.625 13.21875C13.671875 12.710938 13.519531 11.945313 13.5 11.34375C14.390625 12.394531 15.117188 13.488281 15.4375 14.625C15.949219 16.449219 15.714844 18.3125 14.1875 20.40625C13.859375 20.855469 13.957031 21.484375 14.40625 21.8125C14.855469 22.140625 15.484375 22.042969 15.8125 21.59375C17.640625 19.09375 18.042969 16.429688 17.375 14.0625C16.707031 11.695313 15.066406 9.640625 13 7.9375C12.820313 7.777344 12.585938 7.6875 12.34375 7.6875C12.3125 7.6875 12.28125 7.6875 12.25 7.6875Z" fill="#FFFFFF" />
</svg>