<svg xmlns="http://www.w3.org/2000/svg" width="146.833" height="146.833" viewBox="0 0 146.833 146.833">
  <g id="Group_45" data-name="Group 45" transform="translate(-996.534 -1937.261)">
    <path id="icons8-coins" d="M103.55,1C89.345,1,76,4.088,67.856,9.251A3.5,3.5,0,0,0,71.6,15.159c7.074-4.487,19.018-7.167,31.954-7.167,21.337,0,37.291,7.388,37.291,13.984,0,4.265-7.458,9.964-21.722,12.609a3.5,3.5,0,0,0,.641,6.934,3.972,3.972,0,0,0,.641-.058c16.921-3.146,27.432-10.616,27.432-19.485C147.833,10.02,128.791,1,103.55,1Zm40.787,64.094a3.491,3.491,0,0,0-3.5,3.5c0,2.983-3.345,5.559-5.337,6.817a3.492,3.492,0,0,0,1.876,6.444,3.4,3.4,0,0,0,1.865-.548c7.1-4.487,8.589-9.393,8.589-12.714A3.491,3.491,0,0,0,144.337,65.094Zm0-23.307a3.491,3.491,0,0,0-3.5,3.5c0,3.088-3.671,6.514-9.824,9.148a3.5,3.5,0,0,0,1.375,6.712,3.581,3.581,0,0,0,1.375-.28c9.066-3.892,14.066-9.428,14.066-15.581A3.491,3.491,0,0,0,144.337,41.787ZM62.763,147.833A61.763,61.763,0,1,0,1,86.07,61.839,61.839,0,0,0,62.763,147.833Zm0-116.534A54.771,54.771,0,1,1,7.992,86.07,54.827,54.827,0,0,1,62.763,31.3Z" transform="translate(995.534 1936.261)" fill="#fff"/>
    <text id="_100_" data-name="100%" transform="translate(1058.95 2027.678)" fill="#fff" font-size="38" font-family="SegoeUI-Bold, Segoe UI" font-weight="700"><tspan x="-49.263" y="0">100%</tspan></text>
    <text id="_5_" data-name="+5%" transform="translate(1058.95 2058.678)" fill="#fff" font-size="30" font-family="SegoeUI-Bold, Segoe UI" font-weight="700"><tspan x="-32.241" y="0">+5%</tspan></text>
  </g>
</svg>
