<svg xmlns="http://www.w3.org/2000/svg" width="42" height="41" viewBox="0 0 42 41">
  <g id="telegram" transform="translate(0.134 0.052)">
    <rect id="Rectangle_55" data-name="Rectangle 55" width="42" height="41" transform="translate(-0.134 -0.052)" fill="none"/>
    <path id="icons8_telegram_app_1" d="M43.635,6.541a2.8,2.8,0,0,0-2.964-.233h0c-1.207.5-34.158,15.2-35.5,15.8-.244.088-2.375.915-2.155,2.756a3.273,3.273,0,0,0,2.118,2.427l8.377,2.982c.556,1.924,2.6,9.02,3.058,10.536.283.945.743,2.187,1.551,2.443a1.868,1.868,0,0,0,1.869-.348l5.122-4.939,8.268,6.7.2.122a3.855,3.855,0,0,0,1.613.388,2.885,2.885,0,0,0,1.141-.232,3.547,3.547,0,0,0,1.786-1.9L44.289,9.676C44.666,7.893,44.142,6.986,43.635,6.541ZM20.9,31.464,18.072,39.3l-2.826-9.794L36.912,12.856Z" transform="translate(-2.999 -5.198)" fill="#fff"/>
  </g>
</svg>
