<svg id="twitter" xmlns="http://www.w3.org/2000/svg" width="41.418" height="41.418" viewBox="0 0 41.418 41.418">
  <rect id="Rectangle_56" data-name="Rectangle 56" width="41.364" height="41.418" fill="none"/>
  <path id="icons8_twitter_squared" d="M43.418,4A27.26,27.26,0,0,1,36.656,6.64c-.056.014-.1.033-.155.048a9.316,9.316,0,0,0-15.863,6.624c0,.271-.023.77,0,1.035-6.944,0-12.229-3.634-16.018-8.278a12.593,12.593,0,0,0-.592,4.205c0,2.9,2.268,5.747,5.8,7.512a8.494,8.494,0,0,1-2.112.288A5.564,5.564,0,0,1,4.071,16.8V16.9c0,4.052,4.3,6.811,8.13,7.578a7.425,7.425,0,0,1-3.106.5c-.538,0-2.444-.246-2.953-.341,1.064,3.322,4.9,5.188,8.563,5.254C11.843,32.14,9.857,32.972,4,32.972H2a25.114,25.114,0,0,0,13.144,4.141c15.387,0,24.132-11.719,24.132-22.766,0-.178,0-.55-.01-.925,0-.037.01-.072.01-.11,0-.056-.017-.11-.017-.166-.006-.281-.012-.544-.019-.681a17.01,17.01,0,0,0,4.177-4.327,16.721,16.721,0,0,1-4.8,1.316C40.341,8.419,42.795,5.953,43.418,4Z" transform="translate(-2 0.176)" fill="#fff"/>
</svg>
