<svg xmlns="http://www.w3.org/2000/svg" width="64.971" height="62.146" viewBox="0 0 64.971 62.146">
  <path id="icons8-network" d="M26.011,3V8.65H16.124a7.069,7.069,0,0,0-7.062,7.062v11.3H2V41.135H18.949V27.011H11.887v-11.3a4.245,4.245,0,0,1,4.237-4.237h9.887v5.65H42.96V3ZM45.785,8.65v2.825h7.062a4.245,4.245,0,0,1,4.237,4.237v11.3H50.022V41.135H66.971V27.011H59.909v-11.3A7.069,7.069,0,0,0,52.847,8.65ZM9.062,43.96v8.475A7.069,7.069,0,0,0,16.124,59.5h9.887v5.65H42.96V51.022H26.011v5.65H16.124a4.245,4.245,0,0,1-4.237-4.237V43.96Zm48.022,0v8.475a4.245,4.245,0,0,1-4.237,4.237H45.785V59.5h7.062a7.069,7.069,0,0,0,7.062-7.062V43.96Z" transform="translate(-2 -3)" fill="#f1fff3"/>
</svg>
