 <svg xmlns="http://www.w3.org/2000/svg" width="52.851" height="63.005" viewBox="0 0 52.851 63.005">
  <path id="icons8-fire" d="M26.45,0a2.52,2.52,0,0,0-2.359,2.32c-.752,9.284-5.269,14.5-10.065,20.013S4,33.779,4,43.211a19.43,19.43,0,0,0,6.409,14.508,18.967,18.967,0,0,0,12.464,5.19,2.517,2.517,0,1,0,0-5.033,14.483,14.483,0,0,1-9.082-3.853A14.21,14.21,0,0,1,9.033,43.211c0-7.618,3.981-12.031,8.807-17.575,4.1-4.708,8.547-10.336,10.38-18.479C45.456,20.79,52.036,31.234,51.81,40.537c-.187,7.588-4.689,15.481-9.751,17.536a2.517,2.517,0,1,0,1.887,4.639C51.83,59.518,56.617,50,56.843,40.655,57.143,28.3,48.567,15.91,28.1.512A2.522,2.522,0,0,0,26.45,0Zm4.6,19.384a2.522,2.522,0,0,0-2.2,2.949,41.4,41.4,0,0,1,.668,10.459,9.4,9.4,0,0,1-1.376,4.679c-.437.506-.157.462-.865.157a10.3,10.3,0,0,1-3.617-3.735,2.515,2.515,0,0,0-4.286.118C16,39.942,16.174,44.749,17.6,47.89a10.979,10.979,0,0,0,4.05,4.639,2.517,2.517,0,0,0,2.438-4.4,5.2,5.2,0,0,1-1.887-2.32,7.572,7.572,0,0,1-.039-5.78,9.986,9.986,0,0,0,3.106,2.2,5.99,5.99,0,0,0,6.684-1.455c1.578-1.828,2.31-4.364,2.595-7.549a35.48,35.48,0,0,0,.039-4.246,20.265,20.265,0,0,1,3.774,7.077c1.071,4.187.413,8.414-2.516,12.9A2.53,2.53,0,1,0,40.094,51.7,20.968,20.968,0,0,0,43.239,34.8c-1.411-5.509-5.077-10.513-10.3-14.823A2.511,2.511,0,0,0,31.051,19.384Z" transform="translate(-4 0.002)" fill="#f1fff3"/>
</svg>
