<svg xmlns="http://www.w3.org/2000/svg" width="63.732" height="63.732" viewBox="0 0 63.732 63.732">
  <path id="icons8-education" d="M34.866,3A31.831,31.831,0,1,0,66.732,34.866,31.96,31.96,0,0,0,34.866,3ZM48.144,48.144a29.09,29.09,0,0,0-13.278,5.311,29.09,29.09,0,0,0-13.278-5.311V39.381l11.153,3.187a5.177,5.177,0,0,0,2.124.266,5.177,5.177,0,0,0,2.124-.266l11.153-3.187Zm6.108-15.933L35.663,37.522H34.07L15.481,32.211a3.2,3.2,0,0,1-1.859-2.656A3.2,3.2,0,0,1,15.481,26.9L34.07,21.589a1.693,1.693,0,0,1,1.593,0L54.251,26.9a2.638,2.638,0,0,1,1.859,2.656A2.888,2.888,0,0,1,54.251,32.211Z" transform="translate(-3 -3)" fill="#fff"/>
</svg>
