<?xml version="1.0" encoding="utf-8"?>
<svg xmlns="http://www.w3.org/2000/svg" viewBox="0 0 30 30" width="64" height="64">
  <path d="M4 5C2.895 5 2 5.895 2 7L2 23C2 24.105 2.895 25 4 25L26 25C27.105 25 28 24.105 28 23L28 7C28 5.895 27.105 5 26 5L4 5 z M 23 8C24.105 8 25 8.895 25 10C25 11.105 24.105 12 23 12C21.895 12 21 11.105 21 10C21 8.895 21.895 8 23 8 z M 5 10L9.9726562 14.972656L11 16L12.15625 17.15625C12.57825 17.57825 13.259641 17.574344 13.681641 17.152344C14.104641 16.730344 14.104641 16.044094 13.681641 15.621094L12.529297 14.470703L14 13L16.972656 15.972656L19.15625 18.15625C19.57825 18.57825 20.259641 18.574344 20.681641 18.152344C21.104641 17.730344 21.104641 17.044094 20.681641 16.621094L20.529297 16.470703L22 15L25 18L25 22L5 22L5 10 z" fill="#FFFFFF" />
</svg>