<svg xmlns="http://www.w3.org/2000/svg" width="124.358" height="123.135" viewBox="0 0 124.358 123.135">
  <path id="icons8_coin_in_hand" d="M83.356,4a28.219,28.219,0,1,0,28.219,28.219A28.3,28.3,0,0,0,83.356,4Zm0,10.261A17.957,17.957,0,1,1,65.4,32.219,17.88,17.88,0,0,1,83.356,14.261ZM42.18,65.568c-16.4,0-38.139,9.029-38.139,9.029l3.778,9.539s22.1-8.307,34.361-8.307c4.96,0,13.439,3,20.352,6.533A93.455,93.455,0,0,1,71.4,87.513c1.143.759,2.083,1.435,2.7,1.924.062.049.074.081.13.13a3.981,3.981,0,0,1,.661.681l.311.471a3.742,3.742,0,0,1-.231,3.989,3.812,3.812,0,0,1-4.389,1.413L48.253,85.5l-4.409,9.259,23.038,10.963.26.09c4.72,1.654,9.5.054,13.248-3.016h1.443l1.523-2.175.01-.01a13.957,13.957,0,0,0,2.385-9.66l24.491-4h.01a5.539,5.539,0,0,1,3.167,10.522c-7.517,3.312-19.75,8.264-30.614,12.345-5.432,2.04-10.541,3.868-14.51,5.161-1.985.646-3.688,1.153-4.951,1.483s-2.334.411-1.814.411a40.756,40.756,0,0,1-4.229-1.794c-2.416-1.3-5.366-3.174-8.4-5.1s-6.141-3.905-9.129-5.492-5.639-3.006-9.269-3.006a45.083,45.083,0,0,0-15.893,3.247l3.918,9.49s6.382-2.475,11.975-2.475a26.059,26.059,0,0,1,4.459,1.8c2.448,1.3,5.415,3.169,8.437,5.091s6.1,3.9,9.029,5.481,5.456,3.016,9.1,3.016a15.334,15.334,0,0,0,4.4-.741c1.582-.413,3.435-.978,5.542-1.663,4.212-1.372,9.418-3.236,14.941-5.311,11.046-4.15,23.326-9.112,31.145-12.556,5.219-2.3,7.593-7.329,8.257-12.7H128.4l-2.255-6.744a15.845,15.845,0,0,0-17.556-10.592h-.02L80.49,81.411c-.092-.074-.234-.166-.33-.241s-.166-.154-.261-.221l-1.513-1.082-.021.02c-.445-.312-.782-.59-1.283-.922a103.021,103.021,0,0,0-9.89-5.742C59.565,69.327,50.6,65.568,42.18,65.568Z" transform="translate(-4.041 -4)" fill="#fff"/>
</svg>
