<?xml version="1.0" encoding="utf-8"?>
<!-- Generator: Adobe Illustrator 25.0.1, SVG Export Plug-In . SVG Version: 6.00 Build 0)  -->
<svg version="1.1" id="Layer_1" xmlns="http://www.w3.org/2000/svg" xmlns:xlink="http://www.w3.org/1999/xlink" x="0px" y="0px"
	 viewBox="0 0 925.9 225.5" style="enable-background:new 0 0 925.9 225.5;" xml:space="preserve">
<style type="text/css">
	.st0{fill:#FFFFFF;}
	.st1{fill:#F48521;}
</style>
<g>
	<g>
		<path d="M208.3,62.2c-1.2,43-13.5,81.9-40.9,115.5c-15.7,19.1-35,33.7-56.6,45.7c-5.1,2.9-8.9,2.7-14-0.1
			c-41.8-22.8-71.8-55.6-87-101C0.1,93.4-2.5,63.8,2.3,33.7c0.4-2.6,1.6-4.6,4.4-4.9c2.6-0.3,4,1.4,5.1,3.6
			c12.8,25.1,25.7,50.1,38.5,75.2c1,1.9,2.1,2.7,4.4,2.7c33.8-0.1,67.7,0,101.5-0.1c1.1,0,2.8-1.1,3.3-2.2
			c12.2-25,24.2-50,36.3-75.1c1.2-2.5,2.5-4.5,5.5-4.1c2.9,0.4,3.9,2.6,4.1,5.4C206.2,43.6,207.3,52.9,208.3,62.2z M153.4,119.6
			c-32.5,0-64.4,0-96.9,0c15.8,30.8,31.5,61.3,47.4,92.4C120.6,180.9,136.9,150.4,153.4,119.6z M9.9,48.7
			c-2.4,27.4,2.3,62.6,17.8,92.9c14,27.6,46.9,62.2,64.8,67.9C65,156.1,37.7,102.8,9.9,48.7z M116.2,209.2
			c27.7-16.4,49.1-38.8,63.8-67.4c16.8-32.6,20.8-75.6,17.3-91.9C172.9,104.8,143.9,156.6,116.2,209.2z"/>
		<path d="M530.7,132.4c1.3-0.1,2.5-0.2,3.7-0.2c20.1,0,40.3,0,60.4,0c9.5,0,15.2,5.5,15.2,14.9c0,7.1,0.1,14.3,0,21.4
			c-0.1,8.5-5.4,13.7-13.9,13.7c-3.5,0-7,0-11.4,0c4.6,5.4,8.5,10.1,12.5,14.8s8,9.4,12.5,14.8c-4.2,0-7.7,0.2-11.2-0.1
			c-0.9-0.1-1.9-1.3-2.6-2.2c-7.1-8.4-14.1-16.8-21.2-25.1c-0.8-1-2.2-2.1-3.4-2.2c-10.4-0.2-20.9-0.1-31.8-0.1c0,9.8,0,19.5,0,29.4
			c-3.1,0-5.8,0-8.8,0C530.7,185.5,530.7,159.2,530.7,132.4z M570.2,141.6c-8.3,0-16.7,0-25,0c-4.4,0-5.7,1.3-5.7,5.8
			c0,6.8,0,13.6,0,20.3c0,4.2,1.4,5.6,5.5,5.7c16.8,0,33.6,0,50.4,0c4.2,0,5.6-1.5,5.6-5.6c0.1-6.7,0-13.3,0-20
			c0-4.9-1.3-6.2-6.1-6.2C586.7,141.6,578.5,141.6,570.2,141.6z"/>
		<path d="M406.4,211.8c0-26.5,0-52.9,0-79.4c24.1,0,48.1,0,72.3,0c0,2.9,0,5.7,0,8.9c-21,0-41.9,0-63.1,0c0,8.8,0,17.3,0,26.3
			c16.7,0,33.5,0,50.6,0c0,3.3,0,6.1,0,9.2c-16.9,0-33.6,0-50.6,0c0,8.8,0,17.3,0,26.2c21,0,41.9,0,63.1,0c0,3.1,0,5.9,0,8.9
			C454.6,211.8,430.6,211.8,406.4,211.8z"/>
		<path d="M354.6,132.2c0,3.2,0,5.9,0,9.3c-1.5,0-2.8,0-4.2,0c-19.8,0-39.5,0-59.3,0c-5.7,0-6.8,1.1-6.8,6.9c0,16,0,32.1,0,48.1
			c0,5.4,1.1,6.5,6.5,6.5c19.8,0,39.5,0,59.3,0c1.4,0,2.8,0,4.4,0c0,3.1,0,5.8,0,9c-1.2,0-2.5,0-3.7,0c-20.1,0-40.2,0-60.4,0
			c-10,0-15.1-5.1-15.1-15.2c0-16.5,0-33,0-49.6c0-9.5,5.6-15.1,15-15.1c20.1,0,40.2,0,60.4,0C351.9,132.2,353.1,132.2,354.6,132.2z
			"/>
		<path d="M925.6,212c-3.3,0-5.8-0.1-8.3,0c-2.4,0.2-3.9-0.6-5.5-2.5c-8.4-10.2-17-20.2-25.4-30.4c-1.4-1.7-2.9-2.4-5.1-2.4
			c-7.4,0.1-14.7,0-22.5,0c0,11.7,0,23.2,0,34.9c-3.1,0-5.9,0-9,0c0-26.4,0-52.8,0-79.4c2.9,0,5.6,0,8.8,0c0,11.6,0,23.3,0,35.3
			c8.6,0,16.6,0.1,24.7-0.1c1,0,2.2-1.3,3-2.2c8.5-10.1,17.1-20.1,25.5-30.3c1.7-2.1,3.5-3.2,6.3-2.9c2.2,0.2,4.5,0,7.8,0
			c-11.4,13.7-22.3,26.7-33.5,40.1C903.2,185.3,914.1,198.4,925.6,212z"/>
		<path d="M702,211.9c-3.2,0-5.8,0-8.9,0c0-23.4,0-46.7,0-70.4c-12,0-23.5,0-35.2,0c0-3.2,0-6,0-9.1c26.2,0,52.5,0,79,0
			c0,2.8,0,5.7,0,9c-11.6,0-23.1,0-34.9,0C702,165.1,702,188.4,702,211.9z"/>
		<path d="M34.2,29.8c-1-1.1-2.8-2.3-3.3-3.9c-0.9-2.6,0.6-4.6,3.2-5.4c6.5-2,13-4,19.4-6C69,9.8,84.4,5,99.9,0.5
			c2.3-0.7,5.2-0.7,7.6-0.1c21.9,6.5,43.7,13.2,65.5,19.9c0.9,0.3,1.9,0.5,2.7,0.9c2.3,1.1,3.5,3,2.6,5.5c-0.8,2.5-2.7,3.5-5.3,3
			c-0.9-0.2-1.8-0.5-2.7-0.8c-21-6.4-42.1-12.9-63.1-19.1c-2-0.6-4.5-0.7-6.5-0.1c-20.6,6.2-41.2,12.5-61.8,18.8
			C37.7,28.9,36.5,29.2,34.2,29.8z"/>
		<path d="M794.1,212c-1.4,0-2.6,0-3.8,0c-1.4,0-2.8,0-4.5,0c0-26.6,0-53,0-79.6c2.7,0,5.3,0,8.3,0
			C794.1,158.8,794.1,185.2,794.1,212z"/>
		<path class="st0" d="M9.9,48.7C37.7,102.8,65,156.1,92.4,209.5c-17.8-5.7-50.7-40.3-64.8-67.9C12.2,111.3,7.5,76.1,9.9,48.7z"/>
		<path class="st0" d="M116.2,209.2c27.6-52.6,56.7-104.4,81.1-159.3c3.5,16.2-0.4,59.3-17.3,91.9
			C165.3,170.4,144,192.7,116.2,209.2z"/>
		<g>
			<path d="M313.2,92.2l-4.1-10.9h-20.9l-4.1,10.9h-8L294.3,44h8.7l18.2,48.2H313.2z M290.8,74.3h15.6l-7.8-20.7L290.8,74.3z"/>
			<path d="M341.2,90.1c-2.8-1.6-5-3.8-6.6-6.6c-1.6-2.8-2.4-5.8-2.4-9.1V43.9h7.6v30.9c0,1.9,0.5,3.7,1.4,5.3
				c0.9,1.6,2.2,2.9,3.8,3.8c1.6,0.9,3.4,1.4,5.3,1.4s3.7-0.5,5.3-1.4c1.6-0.9,2.9-2.2,3.8-3.8c0.9-1.6,1.4-3.4,1.4-5.3V43.9h7.6
				v30.5c0,3.3-0.8,6.3-2.4,9.1c-1.6,2.8-3.8,5-6.6,6.6c-2.8,1.6-5.8,2.4-9,2.4C347,92.6,343.9,91.8,341.2,90.1z"/>
			<path d="M399.1,44c4.4,0,8.4,1.1,12.1,3.2c3.7,2.2,6.6,5.1,8.8,8.8c2.2,3.7,3.2,7.7,3.2,12.1s-1.1,8.4-3.2,12.1
				c-2.2,3.7-5.1,6.6-8.8,8.8c-3.7,2.2-7.7,3.3-12.1,3.3h-15.5V44.1L399.1,44L399.1,44z M407,83.1c2.6-1.6,4.7-3.7,6.3-6.3
				c1.5-2.6,2.3-5.5,2.3-8.7s-0.8-6.1-2.3-8.7s-3.6-4.7-6.3-6.3c-2.6-1.5-5.5-2.3-8.7-2.3h-7.1v34.6h7.1
				C401.4,85.4,404.3,84.6,407,83.1z"/>
			<path d="M437.9,92.2V44h7.6v48.2H437.9z"/>
			<path d="M470.7,50.9h-13.3l-0.1-7h34.4v7h-13.4v41.3h-7.6V50.9z"/>
			<path d="M541.7,44c2.9,0,5.5,0.7,8,2.1c2.4,1.4,4.4,3.3,5.8,5.8c1.4,2.4,2.1,5.1,2.1,8s-0.7,5.5-2.1,8c-1.4,2.4-3.3,4.4-5.8,5.8
				c-2.4,1.4-5.1,2.2-8,2.2h-10.6v16.4h-7.6V44.1L541.7,44L541.7,44z M541.2,68.8c1.6,0,3-0.4,4.4-1.2c1.3-0.8,2.4-1.9,3.2-3.3
				s1.2-2.9,1.2-4.5s-0.4-3.1-1.2-4.4c-0.8-1.4-1.9-2.5-3.2-3.3s-2.8-1.2-4.4-1.2h-10.1v17.9H541.2z"/>
			<path d="M571,44h31.7v7h-24.1v13.9h21.6v6.5h-21.6v13.9h24.1v7H571V44z"/>
			<path d="M645.7,92.2L623.8,55v37.2h-7.2V44h9.7l23.2,40.2V44h7.2v48.2H645.7z"/>
			<path d="M687.8,44c4.4,0,8.4,1.1,12.1,3.2c3.7,2.2,6.6,5.1,8.8,8.8c2.2,3.7,3.2,7.7,3.2,12.1s-1.1,8.4-3.2,12.1
				c-2.2,3.7-5.1,6.6-8.8,8.8c-3.7,2.2-7.7,3.3-12.1,3.3h-15.5V44.1L687.8,44L687.8,44z M695.7,83.1c2.6-1.6,4.7-3.7,6.3-6.3
				c1.5-2.6,2.3-5.5,2.3-8.7s-0.8-6.1-2.3-8.7s-3.6-4.7-6.3-6.3s-5.5-2.3-8.7-2.3h-7v34.6h7.1C690.2,85.4,693.1,84.6,695.7,83.1z"/>
			<path d="M726.7,92.2V44h7.6v48.2H726.7z"/>
			<path d="M779.1,92.2L757.2,55v37.2H750V44h9.7l23.2,40.2V44h7.2v48.2H779.1z"/>
			<path d="M852,65.8V68c0,4.5-1.1,8.7-3.2,12.6c-2.1,3.9-5,6.9-8.7,9.2c-3.7,2.3-7.7,3.4-12,3.4s-8.2-1.1-11.9-3.4
				c-3.7-2.2-6.6-5.3-8.7-9.2c-2.1-3.9-3.2-8-3.2-12.6c0-4.5,1.1-8.8,3.2-12.6c2.1-3.9,5-6.9,8.7-9.2c3.6-2.2,7.6-3.4,11.9-3.4
				c4.9,0,9.3,1.4,13.3,4.3s6.9,6.6,8.7,11.2l-6.2,2.2c-1.3-3.2-3.4-5.7-6.1-7.6c-2.7-1.9-5.8-2.9-9.1-2.9c-3,0-5.8,0.8-8.4,2.4
				c-2.6,1.6-4.6,3.8-6.1,6.6c-1.5,2.8-2.3,5.8-2.3,9s0.8,6.3,2.3,9c1.5,2.8,3.5,5,6.1,6.6s5.3,2.4,8.4,2.4c2.6,0,5.1-0.6,7.4-1.8
				c2.3-1.2,4.3-2.9,5.8-5.1c1.6-2.2,2.6-4.6,3.1-7.2h-18.7v-6.1H852z"/>
		</g>
	</g>
	<path class="st1" d="M901.3,43.2c-13.5,0-24.4,10.9-24.4,24.4S887.8,92,901.3,92s24.4-10.9,24.4-24.4S914.8,43.2,901.3,43.2z
		 M909.4,79l-10.5-10.5V52.9h4.9v13.6l9,9L909.4,79z"/>
</g>
</svg>
