<?xml version="1.0" encoding="utf-8"?>
<!-- Generator: Adobe Illustrator 25.0.1, SVG Export Plug-In . SVG Version: 6.00 Build 0)  -->
<svg version="1.1" id="Layer_1" xmlns="http://www.w3.org/2000/svg" xmlns:xlink="http://www.w3.org/1999/xlink" x="0px" y="0px"
	 viewBox="0 0 283.6 175.3" style="enable-background:new 0 0 283.6 175.3;" xml:space="preserve">
<style type="text/css">
	.st0{fill:#A00404;}
	.st1{fill:#C11A1A;}
	.st2{fill:#751010;}
	.st3{fill:#540A0A;}
	.st4{fill:#DD3E3E;}
	.st5{fill:#FFFFFF;}
	.st6{fill:url(#SVGID_1_);}
	.st7{fill:none;stroke:#FFFFFF;stroke-width:0.3084;stroke-miterlimit:10;}
	.st8{fill:#F4F4F4;}
</style>
<g id="Layer_1_2_">
	<path id="_x30_" class="st0" d="M139.3,24.6c5.3,0,10.7,0.7,15.8,2l-15.8,61.6l0,0V24.6z"/>
	<path id="_x31_" class="st1" d="M155.1,26.6c6.5,1.7,12.6,4.3,18.3,7.9l-34.1,53.7l0,0L155.1,26.6z"/>
	<path id="_x32_" class="st2" d="M173.4,34.6c23.3,14.8,34.4,42.9,27.5,69.6l-61.6-15.8l0,0L173.4,34.6z"/>
	<path id="_x33_" class="st3" d="M200.9,104.1c-6.9,26.7-30.1,46-57.6,47.7l-4-63.5l0,0L200.9,104.1z"/>
	<path id="_x34_" class="st4" d="M143.3,151.8C108.2,154,78,127.4,75.8,92.3s24.4-65.3,59.5-67.5c1.3-0.1,2.7-0.1,4-0.1v63.6l0,0
		L143.3,151.8z"/>
	<g>
		<path class="st5" d="M144.4,40.5h0.4v0.6h-0.4v0.8h-0.8v-0.8h-1.4v-0.5l1.4-2.3l0,0h0.8V40.5z M143,40.5h0.6v-1.1l-0.1,0.1
			L143,40.5z"/>
		<path class="st5" d="M145.2,39.1c0-0.2,0.1-0.4,0.2-0.5c0.1-0.1,0.3-0.2,0.6-0.2c0.2,0,0.4,0.1,0.6,0.2c0.1,0.1,0.2,0.3,0.2,0.5
			v0.2c0,0.2-0.1,0.4-0.2,0.5c-0.1,0.1-0.3,0.2-0.6,0.2c-0.2,0-0.4-0.1-0.6-0.2c-0.1-0.1-0.2-0.3-0.2-0.5V39.1z M145.7,39.2
			c0,0.1,0,0.2,0.1,0.2c0,0.1,0.1,0.1,0.2,0.1c0.2,0,0.3-0.1,0.3-0.3v-0.1c0-0.1,0-0.2-0.1-0.2c0-0.1-0.1-0.1-0.2-0.1
			c-0.1,0-0.1,0-0.2,0.1C145.8,39,145.7,39,145.7,39.2L145.7,39.2z M146.1,41.7l-0.4-0.2l1.7-2.8l0.4,0.2L146.1,41.7z M146.9,41.1
			c0-0.2,0.1-0.4,0.2-0.5s0.3-0.2,0.6-0.2c0.2,0,0.4,0.1,0.6,0.2c0.1,0.1,0.2,0.3,0.2,0.6v0.2c0,0.2-0.1,0.4-0.2,0.5
			c-0.1,0.1-0.3,0.2-0.6,0.2c-0.2,0-0.4-0.1-0.6-0.2c-0.1-0.1-0.2-0.3-0.2-0.5V41.1z M147.4,41.2c0,0.1,0,0.1,0.1,0.2
			c0.1,0.1,0.1,0.1,0.2,0.1c0.2,0,0.2-0.1,0.3-0.2V41c0-0.1,0-0.2-0.1-0.2c0-0.1-0.1-0.1-0.2-0.1c-0.1,0-0.1,0-0.2,0.1
			c0,0-0.1,0.1-0.1,0.2V41.2z"/>
	</g>
	<g>
		<path class="st5" d="M156.6,42.7l0.2-1.8h2.1v0.6h-1.4l-0.1,0.7c0.1,0,0.1-0.1,0.2-0.1s0.2,0,0.3,0c0.4,0,0.6,0.1,0.8,0.3
			s0.3,0.5,0.3,0.9c0,0.2-0.1,0.4-0.2,0.6c-0.1,0.2-0.2,0.3-0.4,0.4c-0.2,0.1-0.4,0.1-0.7,0.1c-0.2,0-0.4,0-0.6-0.1
			c-0.2-0.1-0.3-0.2-0.5-0.4c-0.1-0.2-0.2-0.3-0.2-0.5h0.8c0,0.1,0,0.2,0.1,0.3s0.2,0.1,0.3,0.1c0.3,0,0.4-0.2,0.4-0.6
			c0-0.4-0.2-0.6-0.5-0.6c-0.2,0-0.3,0.1-0.4,0.2L156.6,42.7z"/>
		<path class="st5" d="M159.5,41.5c0-0.2,0.1-0.4,0.2-0.5c0.1-0.1,0.3-0.2,0.6-0.2c0.2,0,0.4,0.1,0.6,0.2c0.1,0.1,0.2,0.3,0.2,0.5
			v0.2c0,0.2-0.1,0.4-0.2,0.5c-0.1,0.1-0.3,0.2-0.6,0.2c-0.2,0-0.4-0.1-0.6-0.2c-0.1-0.1-0.2-0.3-0.2-0.5V41.5z M160,41.7
			c0,0.1,0,0.2,0.1,0.2c0,0.1,0.1,0.1,0.2,0.1c0.2,0,0.3-0.1,0.3-0.3v-0.1c0-0.1,0-0.2-0.1-0.2c0-0.1-0.1-0.1-0.2-0.1
			c-0.1,0-0.1,0-0.2,0.1C160.1,41.5,160,41.5,160,41.7L160,41.7z M160.4,44.1l-0.4-0.2l1.7-2.8l0.4,0.2L160.4,44.1z M161.1,43.5
			c0-0.2,0.1-0.4,0.2-0.5s0.3-0.2,0.6-0.2c0.2,0,0.4,0.1,0.6,0.2c0.1,0.1,0.2,0.3,0.2,0.6v0.2c0,0.2-0.1,0.4-0.2,0.5
			c-0.1,0.1-0.3,0.2-0.6,0.2c-0.2,0-0.4-0.1-0.6-0.2c-0.1-0.1-0.2-0.3-0.2-0.5V43.5z M161.7,43.7c0,0.1,0,0.1,0.1,0.2
			c0.1,0.1,0.1,0.1,0.2,0.1c0.2,0,0.2-0.1,0.3-0.2v-0.3c0-0.1,0-0.2-0.1-0.2c0-0.1-0.1-0.1-0.2-0.1c-0.1,0-0.1,0-0.2,0.1
			c0,0-0.1,0.1-0.1,0.2V43.7z"/>
	</g>
	<g>
		<path class="st5" d="M170.5,78.1h-5V77l2.3-2.4c0.6-0.6,0.8-1.1,0.8-1.5c0-0.3-0.1-0.5-0.2-0.7c-0.1-0.2-0.3-0.2-0.6-0.2
			s-0.5,0.1-0.6,0.3c-0.2,0.2-0.2,0.5-0.2,0.8h-1.6c0-0.4,0.1-0.8,0.3-1.2c0.2-0.4,0.5-0.7,0.9-0.9c0.4-0.2,0.8-0.3,1.3-0.3
			c0.8,0,1.4,0.2,1.8,0.5s0.6,0.9,0.6,1.5c0,0.3-0.1,0.6-0.2,0.8c-0.1,0.3-0.3,0.5-0.5,0.8s-0.6,0.7-1.1,1.2l-0.9,1.1h2.8
			L170.5,78.1L170.5,78.1z"/>
		<path class="st5" d="M176.3,75.2c0,1-0.2,1.7-0.6,2.2s-1,0.8-1.8,0.8s-1.4-0.3-1.8-0.8s-0.6-1.3-0.6-2.2v-1.3c0-1,0.2-1.7,0.6-2.2
			c0.4-0.5,1-0.8,1.8-0.8s1.4,0.3,1.8,0.8c0.4,0.5,0.6,1.3,0.6,2.2V75.2z M174.7,73.7c0-0.5-0.1-0.9-0.2-1.1
			c-0.1-0.3-0.3-0.4-0.6-0.4s-0.5,0.1-0.6,0.4c-0.1,0.2-0.2,0.6-0.2,1.1v1.8c0,0.5,0.1,0.9,0.2,1.2c0.1,0.2,0.3,0.4,0.6,0.4
			s0.5-0.1,0.6-0.4c0.1-0.2,0.2-0.6,0.2-1.1V73.7z"/>
		<path class="st5" d="M177.2,72.4c0-0.4,0.1-0.8,0.4-1.1s0.7-0.4,1.2-0.4s0.9,0.1,1.2,0.4s0.4,0.6,0.4,1.1v0.4
			c0,0.4-0.1,0.8-0.4,1.1c-0.3,0.3-0.7,0.4-1.1,0.4c-0.5,0-0.9-0.1-1.2-0.4s-0.4-0.6-0.4-1.1L177.2,72.4L177.2,72.4z M178.2,72.7
			c0,0.2,0,0.3,0.1,0.4s0.2,0.2,0.4,0.2c0.3,0,0.5-0.2,0.5-0.6v-0.3c0-0.2,0-0.3-0.1-0.4s-0.2-0.2-0.4-0.2s-0.3,0.1-0.4,0.2
			c-0.1,0.1-0.1,0.2-0.1,0.4V72.7z M179.1,77.6l-0.8-0.4l3.5-5.6l0.8,0.4L179.1,77.6z M180.5,76.4c0-0.4,0.1-0.8,0.4-1.1
			c0.3-0.3,0.7-0.4,1.1-0.4c0.5,0,0.9,0.1,1.2,0.4s0.4,0.6,0.4,1.1v0.3c0,0.4-0.1,0.8-0.4,1.1c-0.3,0.3-0.7,0.4-1.2,0.4
			s-0.9-0.1-1.2-0.4s-0.4-0.6-0.4-1.1L180.5,76.4L180.5,76.4z M181.6,76.7c0,0.2,0.1,0.3,0.2,0.4c0.1,0.1,0.2,0.2,0.4,0.2
			c0.3,0,0.5-0.1,0.5-0.4v-0.5c0-0.2,0-0.3-0.1-0.4s-0.2-0.2-0.4-0.2s-0.3,0-0.4,0.1c-0.1,0.1-0.1,0.2-0.2,0.4V76.7z"/>
	</g>
	<g>
		<path class="st5" d="M158.2,120h-5v-1l2.3-2.4c0.6-0.6,0.8-1.2,0.8-1.5s-0.1-0.5-0.2-0.7c-0.1-0.2-0.3-0.2-0.6-0.2
			s-0.5,0.1-0.6,0.3c-0.2,0.2-0.2,0.5-0.2,0.8h-1.6c0-0.4,0.1-0.8,0.3-1.2c0.2-0.4,0.5-0.7,0.9-0.9c0.4-0.2,0.8-0.3,1.3-0.3
			c0.8,0,1.4,0.2,1.8,0.5s0.6,0.9,0.6,1.5c0,0.3-0.1,0.6-0.2,0.8c-0.1,0.3-0.3,0.5-0.5,0.8s-0.6,0.7-1.1,1.2l-0.9,1.1h2.8L158.2,120
			L158.2,120z"/>
		<path class="st5" d="M164,117.1c0,1-0.2,1.7-0.6,2.2c-0.4,0.5-1,0.8-1.8,0.8s-1.4-0.3-1.8-0.8c-0.4-0.5-0.6-1.3-0.6-2.2v-1.3
			c0-1,0.2-1.7,0.6-2.2c0.4-0.5,1-0.8,1.8-0.8s1.4,0.3,1.8,0.8c0.4,0.5,0.6,1.3,0.6,2.2V117.1z M162.3,115.6c0-0.5-0.1-0.9-0.2-1.1
			c-0.1-0.3-0.3-0.4-0.6-0.4s-0.5,0.1-0.6,0.4c-0.1,0.2-0.2,0.6-0.2,1.1v1.8c0,0.5,0.1,0.9,0.2,1.2c0.1,0.2,0.3,0.4,0.6,0.4
			s0.5-0.1,0.6-0.4c0.1-0.2,0.2-0.6,0.2-1.1V115.6z"/>
		<path class="st5" d="M164.8,114.3c0-0.4,0.1-0.8,0.4-1.1c0.3-0.3,0.7-0.4,1.2-0.4s0.9,0.1,1.2,0.4s0.4,0.6,0.4,1.1v0.4
			c0,0.4-0.1,0.8-0.4,1.1s-0.7,0.4-1.1,0.4c-0.5,0-0.9-0.1-1.2-0.4s-0.4-0.6-0.4-1.1L164.8,114.3L164.8,114.3z M165.9,114.7
			c0,0.2,0,0.3,0.1,0.4s0.2,0.2,0.4,0.2c0.3,0,0.5-0.2,0.5-0.6v-0.3c0-0.2,0-0.3-0.1-0.4s-0.2-0.2-0.4-0.2s-0.3,0.1-0.4,0.2
			c-0.1,0.1-0.1,0.2-0.1,0.4V114.7z M166.7,119.5l-0.8-0.4l3.5-5.6l0.8,0.4L166.7,119.5z M168.2,118.3c0-0.4,0.1-0.8,0.4-1.1
			c0.3-0.3,0.7-0.4,1.1-0.4c0.5,0,0.9,0.1,1.2,0.4s0.4,0.6,0.4,1.1v0.3c0,0.4-0.1,0.8-0.4,1.1s-0.7,0.4-1.2,0.4s-0.9-0.1-1.2-0.4
			s-0.4-0.6-0.4-1.1L168.2,118.3L168.2,118.3z M169.3,118.7c0,0.2,0.1,0.3,0.2,0.4c0.1,0.1,0.2,0.2,0.4,0.2c0.3,0,0.5-0.1,0.5-0.4
			v-0.5c0-0.2,0-0.3-0.1-0.4s-0.2-0.2-0.4-0.2s-0.3,0-0.4,0.1c-0.1,0.1-0.1,0.2-0.2,0.4V118.7z"/>
	</g>
	<g>
		<path class="st5" d="M99.1,90.4l0.4-3.6h4.2v1.3h-2.8l-0.2,1.4c0.1-0.1,0.3-0.1,0.5-0.2s0.4-0.1,0.6-0.1c0.7,0,1.2,0.2,1.6,0.6
			s0.6,1,0.6,1.8c0,0.5-0.1,0.9-0.3,1.2c-0.2,0.4-0.5,0.7-0.9,0.9S102,94,101.5,94c-0.4,0-0.9-0.1-1.3-0.3c-0.4-0.2-0.7-0.4-0.9-0.8
			S99,92.2,99,91.8h1.6c0,0.3,0.1,0.5,0.2,0.6c0.1,0.2,0.3,0.2,0.6,0.2c0.6,0,0.8-0.4,0.8-1.2c0-0.8-0.3-1.1-1-1.1
			c-0.4,0-0.7,0.1-0.9,0.4L99.1,90.4z"/>
		<path class="st5" d="M108.4,93.9h-1.6v-5.2l-1.6,0.5V88l3.1-1.1h0.2L108.4,93.9L108.4,93.9z"/>
		<path class="st5" d="M110.6,88.2c0-0.4,0.1-0.8,0.4-1.1c0.3-0.3,0.7-0.4,1.2-0.4s0.9,0.1,1.2,0.4c0.3,0.3,0.4,0.6,0.4,1.1v0.4
			c0,0.4-0.1,0.8-0.4,1.1c-0.3,0.3-0.7,0.4-1.1,0.4c-0.5,0-0.9-0.1-1.2-0.4c-0.3-0.3-0.4-0.6-0.4-1.1L110.6,88.2L110.6,88.2z
			 M111.6,88.5c0,0.2,0,0.3,0.1,0.4s0.2,0.2,0.4,0.2c0.3,0,0.5-0.2,0.5-0.6v-0.3c0-0.2,0-0.3-0.1-0.4s-0.2-0.2-0.4-0.2
			c-0.2,0-0.3,0.1-0.4,0.2s-0.1,0.2-0.1,0.4V88.5z M112.5,93.4l-0.8-0.4l3.5-5.6l0.8,0.4L112.5,93.4z M113.9,92.2
			c0-0.4,0.1-0.8,0.4-1.1c0.3-0.3,0.7-0.4,1.1-0.4c0.5,0,0.9,0.1,1.2,0.4c0.3,0.3,0.4,0.6,0.4,1.1v0.3c0,0.4-0.1,0.8-0.4,1.1
			c-0.3,0.3-0.7,0.4-1.2,0.4s-0.9-0.1-1.2-0.4c-0.3-0.3-0.4-0.6-0.4-1.1L113.9,92.2L113.9,92.2z M115,92.5c0,0.2,0.1,0.3,0.2,0.4
			s0.2,0.2,0.4,0.2c0.3,0,0.5-0.1,0.5-0.4v-0.5c0-0.2,0-0.3-0.1-0.4s-0.2-0.2-0.4-0.2c-0.2,0-0.3,0-0.4,0.1s-0.1,0.2-0.2,0.4V92.5z"
			/>
	</g>
	
		<linearGradient id="SVGID_1_" gradientUnits="userSpaceOnUse" x1="138.9837" y1="116.1137" x2="139.6209" y2="62.909" gradientTransform="matrix(1 0 0 -1 0 178)">
		<stop  offset="0" style="stop-color:#FFFFFF"/>
		<stop  offset="1" style="stop-color:#454545"/>
	</linearGradient>
	<circle class="st6" cx="139.3" cy="88.3" r="10.9"/>
	<path class="st0" d="M139.3,79.3c-5,0-9.1,4.1-9.1,9.1s4.1,9.1,9.1,9.1s9.1-4.1,9.1-9.1C148.4,83.3,144.3,79.3,139.3,79.3z
		 M140.8,86.5c0-0.5,0.4-1,1-1c0.3,0,0.6,0.1,0.8,0.3c0.1,0.2,0.3,0.3,0.4,0.5c0.3,0.6,0.7,1.2,1,1.8c0,0,0,0,0,0.1v-2.7l0,0h0.6
		c0,0,0.1,0,0.1,0.1V90c0,0.1,0,0.1-0.1,0.2c-0.1,0-0.1,0-0.2,0c0-0.1-0.1-0.1-0.1-0.2c-0.7-1.2-1.4-2.4-2.1-3.6
		c0-0.1-0.1-0.2-0.2-0.2c-0.2-0.1-0.4-0.1-0.5,0.1c0,0,0,0.1-0.1,0.2v3.6v0.1c0,0.1-0.1,0.2-0.2,0.2h-1.1c-0.2,0-0.5,0-0.7,0
		c-0.8,0-1.5-0.6-1.8-1.3c-0.3-1,0.3-2.1,1.3-2.4c0,0,0.1,0,0.2,0c0.1,0,0.3,0,0.4,0h0.9c0,0,0.1,0,0.1,0.1c0,0.2,0,0.4,0,0.6
		c0,0,0,0.1-0.1,0.1c-0.3,0-0.6,0-0.9,0c-0.6,0-1,0.4-1.1,1s0.3,1.3,1,1.4l0,0c0.1,0,0.1,0,0.2,0h1.2c0-0.2,0-1.8,0-2L140.8,86.5
		L140.8,86.5z M145.7,89c0,0.4,0,0.7,0,1.1s-0.2,0.7-0.5,0.9c-0.4,0.2-0.8,0.2-1.2-0.1c-0.2-0.2-0.4-0.4-0.5-0.6
		c-0.4-0.6-0.7-1.2-1.1-1.9l0,0v1.7c0,0.1,0,0.3-0.1,0.4c-0.1,0.4-0.4,0.6-0.8,0.7c-0.1,0-0.2,0-0.3,0h-0.8c-0.2,0-0.6,0-1.2,0h-1.9
		c-0.8,0-1.5,0-1.7,0c-1.3,0-2.5-1-2.7-2.4c-0.3-1.5,0.8-3,2.3-3.2l0,0c0.1,0,0.3,0,0.4,0h0.9c0,0,0.1,0,0.1,0.1c0,0.2,0,0.4,0,0.6
		c0,0,0,0,0,0.1h-0.2c-0.1,0-0.2,0-0.3,0c-0.2,0-0.4,0-0.7,0c-1,0.1-1.8,0.8-1.9,1.8c-0.2,1.2,0.6,2.2,1.8,2.4c0.1,0,0.2,0,0.3,0
		h1.9c-0.1-0.1-0.2-0.1-0.2-0.2c-0.6,0-1.2,0-1.8,0c-0.8,0-1.5-0.6-1.8-1.4c-0.3-1,0.3-2.1,1.3-2.4c0,0,0.1,0,0.2,0
		c0.1,0,0.3,0,0.4,0h0.9c0.1,0,0.1,0,0.1,0.1v0.6c0,0.1,0,0.1-0.1,0.1c-0.3,0-0.6,0-0.9,0c-0.6,0-1,0.4-1.1,1s0.3,1.3,1,1.4l0,0
		c0.1,0,0.2,0,0.2,0h1.2c-0.1-0.2-0.2-0.5-0.2-0.7c-0.3-1.5,0.8-3,2.3-3.2l0,0c0.1,0,0.3,0,0.4,0c0.2,0,0.3,0,0.5,0h0.4
		c0.1,0,0.1,0,0.1,0.1c0,0.2,0,0.4,0,0.6v0.1H140c-0.2,0-0.4,0-0.7,0c-1,0.1-1.7,0.8-1.9,1.8c-0.2,1.2,0.6,2.2,1.8,2.4
		c0.1,0,0.2,0,0.3,0h1.7c0.2,0,0.4-0.2,0.5-0.4v-3.7c0-0.1,0.1-0.1,0.2-0.1c0,0,0,0,0.1,0l0.1,0.1c0.2,0.3,0.4,0.7,0.6,1
		c0.5,0.9,1,1.8,1.5,2.7c0.1,0.1,0.2,0.2,0.3,0.3c0.2,0,0.4-0.1,0.4-0.3l0,0v-4.6c0-0.1,0-0.1,0.1-0.1h0.6c0.1,0,0.1,0,0.1,0.1
		L145.7,89L145.7,89z"/>
	<polyline class="st7" points="186.5,75.8 202.9,59.4 211,59.4 	"/>
	<polyline class="st7" points="163.3,42.4 175.3,30.5 189.8,30.4 	"/>
	<polyline class="st7" points="141,40.5 132,21.5 122.5,21.5 	"/>
	<polyline class="st7" points="173.4,118.1 191.4,136.1 200.9,136.1 	"/>
	<polyline class="st7" points="96.4,90 75.7,69.3 63.6,69.3 	"/>
	<g>
		<path class="st8" d="M55.1,23.2c0-0.1-0.1-0.2-0.1-0.3c-0.2,0.2-0.4,0.4-0.8,0.4c-0.3,0-0.6-0.1-0.8-0.3s-0.3-0.4-0.3-0.7
			c0-0.4,0.1-0.6,0.4-0.8c0.3-0.2,0.6-0.3,1.1-0.3h0.3V21c0-0.3-0.1-0.5-0.4-0.5c-0.2,0-0.4,0.1-0.4,0.4h-1c0-0.3,0.1-0.6,0.4-0.8
			c0.3-0.2,0.6-0.3,1-0.3s0.7,0.1,1,0.3c0.2,0.2,0.4,0.5,0.4,0.8v1.4c0,0.3,0.1,0.5,0.1,0.7v0.1h-0.9V23.2z M54.4,22.5
			c0.1,0,0.2,0,0.3-0.1s0.1-0.1,0.2-0.2v-0.5h-0.3c-0.4,0-0.5,0.2-0.5,0.5c0,0.1,0,0.2,0.1,0.2C54.3,22.5,54.3,22.5,54.4,22.5z"/>
		<path class="st8" d="M56.5,19.1c0-0.1,0.1-0.3,0.2-0.4s0.2-0.1,0.4-0.1s0.3,0,0.4,0.1s0.2,0.2,0.2,0.4s-0.1,0.3-0.2,0.4
			s-0.2,0.1-0.4,0.1s-0.3,0-0.4-0.1S56.5,19.2,56.5,19.1z M57.6,23.2h-1v-3.3h1V23.2z"/>
		<path class="st8" d="M60.2,20.8h-0.3c-0.3,0-0.5,0.1-0.6,0.3v2.1h-1v-3.3h1v0.4c0.2-0.3,0.4-0.5,0.7-0.5c0.1,0,0.2,0,0.3,0
			L60.2,20.8z"/>
		<path class="st8" d="M60.4,21.5c0-0.5,0.1-0.9,0.3-1.2c0.2-0.3,0.5-0.4,0.9-0.4c0.3,0,0.5,0.1,0.7,0.3v-1.7h1v4.6h-0.9l-0.1-0.3
			c-0.2,0.3-0.5,0.4-0.8,0.4c-0.4,0-0.7-0.1-0.9-0.4C60.5,22.5,60.4,22.1,60.4,21.5z M61.4,21.6c0,0.6,0.2,0.9,0.5,0.9
			c0.2,0,0.4-0.1,0.5-0.3V21c-0.1-0.2-0.3-0.3-0.5-0.3c-0.3,0-0.5,0.3-0.5,0.8V21.6z"/>
		<path class="st8" d="M66,20.8h-0.3c-0.3,0-0.5,0.1-0.6,0.3v2.1h-1v-3.3h1v0.4c0.2-0.3,0.4-0.5,0.7-0.5c0.1,0,0.2,0,0.3,0L66,20.8z
			"/>
		<path class="st8" d="M66.2,21.5c0-0.3,0.1-0.6,0.2-0.9s0.3-0.4,0.5-0.6c0.2-0.1,0.5-0.2,0.8-0.2c0.5,0,0.9,0.2,1.2,0.5
			s0.4,0.7,0.4,1.2l0,0c0,0.5-0.1,0.9-0.4,1.2c-0.3,0.3-0.7,0.4-1.1,0.4c-0.5,0-0.8-0.1-1.1-0.4c-0.3-0.3-0.4-0.7-0.5-1.1V21.5z
			 M67.2,21.6c0,0.3,0,0.5,0.1,0.7s0.2,0.2,0.4,0.2c0.4,0,0.5-0.3,0.6-0.8v-0.1c0-0.6-0.2-0.9-0.6-0.9C67.4,20.7,67.2,21,67.2,21.6
			L67.2,21.6z"/>
		<path class="st8" d="M72.8,21.6c0,0.5-0.1,0.9-0.3,1.2c-0.2,0.3-0.5,0.5-0.9,0.5c-0.3,0-0.5-0.1-0.7-0.3v1.5h-1V20h0.9v0.3
			c0.2-0.2,0.5-0.4,0.8-0.4c0.4,0,0.7,0.1,0.9,0.4C72.7,20.6,72.8,21,72.8,21.6L72.8,21.6z M71.8,21.5c0-0.6-0.2-0.9-0.5-0.9
			c-0.2,0-0.4,0.1-0.5,0.3v1.3c0.1,0.2,0.3,0.3,0.5,0.3c0.3,0,0.5-0.3,0.5-0.8V21.5z"/>
		<path class="st8" d="M75.5,20.9c-0.1-0.2-0.2-0.3-0.3-0.5c-0.1-0.2-0.1-0.3-0.1-0.5c0-0.4,0.1-0.6,0.3-0.9s0.5-0.3,0.9-0.3
			c0.3,0,0.6,0.1,0.8,0.3c0.2,0.2,0.3,0.5,0.3,0.8c0,0.4-0.2,0.7-0.6,1L76.6,21l0.7,0.8c0.1-0.2,0.2-0.5,0.2-0.7h0.9
			c0,0.6-0.1,1.1-0.4,1.4l0.7,0.8h-1.1L77.2,23c-0.2,0.1-0.3,0.2-0.5,0.2s-0.4,0.1-0.6,0.1c-0.4,0-0.8-0.1-1-0.3
			c-0.3-0.2-0.4-0.5-0.4-0.9c0-0.2,0.1-0.4,0.2-0.6S75.2,21.1,75.5,20.9L75.5,20.9z M76.2,22.5c0.2,0,0.3,0,0.5-0.1l-0.8-0.9l0,0
			c-0.1,0.1-0.2,0.3-0.2,0.5c0,0.1,0,0.3,0.1,0.4C75.9,22.4,76.1,22.5,76.2,22.5z M76,19.9c0,0.1,0.1,0.3,0.2,0.5l0.2-0.1
			c0.1-0.1,0.2-0.1,0.2-0.2s0.1-0.1,0.1-0.2s0-0.2-0.1-0.2c-0.1-0.1-0.1-0.1-0.2-0.1s-0.2,0-0.3,0.1S76,19.8,76,19.9z"/>
		<path class="st8" d="M83,22.4h-1.4l-0.3,0.8h-1.1l1.6-4.4h1l1.6,4.4h-1.1L83,22.4z M81.8,21.5h0.9L82.3,20L81.8,21.5z"/>
		<path class="st8" d="M85.9,19.1v0.8h0.5v0.7h-0.5v1.5c0,0.1,0,0.2,0.1,0.3c0,0,0.1,0.1,0.3,0.1c0.1,0,0.2,0,0.3,0v0.7
			c-0.2,0.1-0.4,0.1-0.6,0.1c-0.3,0-0.6-0.1-0.8-0.2S85,22.7,85,22.3v-1.6h-0.4V20H85v-0.8h0.9V19.1z"/>
		<path class="st8" d="M88,19.1v0.8h0.5v0.7H88v1.5c0,0.1,0,0.2,0.1,0.3c0,0,0.1,0.1,0.3,0.1c0.1,0,0.2,0,0.3,0v0.7
			c-0.2,0.1-0.4,0.1-0.6,0.1c-0.3,0-0.6-0.1-0.8-0.2S87,22.6,87,22.2v-1.6h-0.4v-0.7H87v-0.8H88z"/>
		<path class="st8" d="M90.9,20.8h-0.3c-0.3,0-0.5,0.1-0.6,0.3v2.1h-1v-3.3h1v0.4c0.2-0.3,0.4-0.5,0.7-0.5c0.1,0,0.2,0,0.3,0
			L90.9,20.8z"/>
		<path class="st8" d="M93.1,23.2c0-0.1-0.1-0.2-0.1-0.3c-0.2,0.2-0.4,0.4-0.8,0.4c-0.3,0-0.6-0.1-0.8-0.3s-0.3-0.4-0.3-0.7
			c0-0.4,0.1-0.6,0.4-0.8c0.3-0.2,0.6-0.3,1.1-0.3H93V21c0-0.3-0.1-0.5-0.4-0.5c-0.2,0-0.4,0.1-0.4,0.4h-1c0-0.3,0.1-0.6,0.4-0.8
			c0.3-0.2,0.6-0.3,1-0.3s0.7,0.1,1,0.3c0.2,0.2,0.4,0.5,0.4,0.8v1.4c0,0.3,0.1,0.5,0.1,0.7v0.1h-1V23.2z M92.5,22.5
			c0.1,0,0.2,0,0.3-0.1s0.1-0.1,0.2-0.2v-0.5h-0.3c-0.4,0-0.5,0.2-0.5,0.5c0,0.1,0,0.2,0.1,0.2C92.3,22.5,92.4,22.5,92.5,22.5z"/>
		<path class="st8" d="M95.9,22.5c0.1,0,0.3,0,0.3-0.1c0.1-0.1,0.1-0.2,0.1-0.3h1c0,0.4-0.1,0.7-0.4,0.9c-0.3,0.2-0.6,0.3-1,0.3
			c-0.5,0-0.8-0.1-1.1-0.4c-0.3-0.3-0.4-0.7-0.4-1.2l0,0c0-0.3,0.1-0.6,0.2-0.9s0.3-0.4,0.5-0.6c0.2-0.1,0.5-0.2,0.8-0.2
			c0.4,0,0.8,0.1,1,0.4s0.4,0.6,0.4,1h-1c0-0.2,0-0.3-0.1-0.4s-0.2-0.1-0.3-0.1c-0.3,0-0.4,0.2-0.5,0.5c0,0.1,0,0.3,0,0.4
			c0,0.3,0,0.6,0.1,0.7C95.6,22.4,95.8,22.5,95.9,22.5z"/>
		<path class="st8" d="M98.9,19.1v0.8h0.5v0.7h-0.5v1.5c0,0.1,0,0.2,0.1,0.3c0,0,0.1,0.1,0.3,0.1c0.1,0,0.2,0,0.3,0v0.7
			c-0.2,0.1-0.4,0.1-0.6,0.1c-0.3,0-0.6-0.1-0.8-0.2S98,22.7,98,22.3v-1.6h-0.4V20H98v-0.8h0.9V19.1z"/>
		<path class="st8" d="M104.4,21.6c0,0.5-0.1,0.9-0.3,1.2c-0.2,0.3-0.5,0.5-0.9,0.5c-0.3,0-0.5-0.1-0.7-0.3v1.5h-1V20h0.9v0.3
			c0.2-0.2,0.5-0.4,0.8-0.4c0.4,0,0.7,0.1,0.9,0.4C104.3,20.6,104.4,21,104.4,21.6L104.4,21.6z M103.4,21.5c0-0.6-0.2-0.9-0.5-0.9
			c-0.2,0-0.4,0.1-0.5,0.3v1.3c0.1,0.2,0.3,0.3,0.5,0.3c0.3,0,0.5-0.3,0.5-0.8V21.5z"/>
		<path class="st8" d="M106.5,23.2c-0.5,0-0.9-0.1-1.2-0.4c-0.3-0.3-0.5-0.7-0.5-1.2v-0.1c0-0.3,0.1-0.6,0.2-0.9s0.3-0.5,0.5-0.6
			s0.5-0.2,0.8-0.2c0.5,0,0.8,0.1,1.1,0.4c0.3,0.3,0.4,0.7,0.4,1.2v0.4h-2c0,0.2,0.1,0.3,0.2,0.4s0.3,0.2,0.5,0.2
			c0.3,0,0.6-0.1,0.8-0.3l0.5,0.5c-0.1,0.2-0.3,0.3-0.5,0.4C107,23.2,106.7,23.2,106.5,23.2z M106.3,20.6c-0.3,0-0.5,0.2-0.5,0.6h1
			v-0.1c0-0.2,0-0.3-0.1-0.4C106.6,20.7,106.5,20.6,106.3,20.6z"/>
		<path class="st8" d="M108.1,21.5c0-0.3,0.1-0.6,0.2-0.9s0.3-0.4,0.5-0.6c0.2-0.1,0.5-0.2,0.8-0.2c0.5,0,0.9,0.2,1.2,0.5
			s0.4,0.7,0.4,1.2l0,0c0,0.5-0.1,0.9-0.4,1.2c-0.3,0.3-0.7,0.4-1.1,0.4c-0.5,0-0.8-0.1-1.1-0.4c-0.3-0.3-0.4-0.7-0.5-1.1V21.5z
			 M109.1,21.6c0,0.3,0,0.5,0.1,0.7s0.2,0.2,0.4,0.2c0.4,0,0.5-0.3,0.6-0.8v-0.1c0-0.6-0.2-0.9-0.6-0.9
			C109.3,20.7,109.1,21,109.1,21.6L109.1,21.6z"/>
		<path class="st8" d="M114.7,21.6c0,0.5-0.1,0.9-0.3,1.2c-0.2,0.3-0.5,0.5-0.9,0.5c-0.3,0-0.5-0.1-0.7-0.3v1.5h-1V20h0.9v0.3
			c0.2-0.2,0.5-0.4,0.8-0.4c0.4,0,0.7,0.1,0.9,0.4C114.6,20.6,114.7,21,114.7,21.6L114.7,21.6z M113.7,21.5c0-0.6-0.2-0.9-0.5-0.9
			c-0.2,0-0.4,0.1-0.5,0.3v1.3c0.1,0.2,0.3,0.3,0.5,0.3c0.3,0,0.5-0.3,0.5-0.8V21.5z"/>
		<path class="st8" d="M116.2,23.2h-1v-4.6h1V23.2z"/>
		<path class="st8" d="M118.4,23.2c-0.5,0-0.9-0.1-1.2-0.4c-0.3-0.3-0.5-0.7-0.5-1.2v-0.1c0-0.3,0.1-0.6,0.2-0.9s0.3-0.5,0.5-0.6
			s0.5-0.2,0.8-0.2c0.5,0,0.8,0.1,1.1,0.4c0.3,0.3,0.4,0.7,0.4,1.2v0.4h-2c0,0.2,0.1,0.3,0.2,0.4s0.3,0.2,0.5,0.2
			c0.3,0,0.6-0.1,0.8-0.3l0.5,0.5c-0.1,0.2-0.3,0.3-0.5,0.4C119,23.2,118.7,23.2,118.4,23.2z M118.3,20.6c-0.3,0-0.5,0.2-0.5,0.6h1
			v-0.1c0-0.2,0-0.3-0.1-0.4C118.6,20.7,118.5,20.6,118.3,20.6z"/>
	</g>
	<g>
		<path class="st8" d="M193.2,32.4h-1.1V28h1.1V32.4z"/>
		<path class="st8" d="M194.8,29.1v0.4c0.2-0.3,0.5-0.4,0.9-0.4c0.3,0,0.6,0.1,0.8,0.3c0.2,0.2,0.3,0.5,0.3,0.9v2.1h-1v-2.1
			c0-0.2,0-0.3-0.1-0.4s-0.2-0.1-0.4-0.1s-0.3,0.1-0.4,0.2v2.3h-1V29h0.9V29.1z"/>
		<path class="st8" d="M197.4,28.3c0-0.1,0.1-0.3,0.2-0.4s0.2-0.1,0.4-0.1s0.3,0,0.4,0.1c0.1,0.1,0.2,0.2,0.2,0.4s-0.1,0.3-0.2,0.4
			c-0.1,0.1-0.2,0.1-0.4,0.1s-0.3,0-0.4-0.1S197.4,28.4,197.4,28.3z M198.4,32.4h-1v-3.3h1V32.4z"/>
		<path class="st8" d="M200.2,28.3v0.8h0.5v0.7h-0.5v1.5c0,0.1,0,0.2,0.1,0.3c0,0,0.1,0.1,0.3,0.1c0.1,0,0.2,0,0.3,0v0.7
			c-0.2,0.1-0.4,0.1-0.6,0.1c-0.3,0-0.6-0.1-0.8-0.2c-0.2-0.2-0.2-0.4-0.2-0.8v-1.6h-0.4v-0.7h0.4v-0.8L200.2,28.3L200.2,28.3z"/>
		<path class="st8" d="M201.2,28.3c0-0.1,0.1-0.3,0.2-0.4s0.2-0.1,0.4-0.1s0.3,0,0.4,0.1c0.1,0.1,0.2,0.2,0.2,0.4s-0.1,0.3-0.2,0.4
			c-0.1,0.1-0.2,0.1-0.4,0.1s-0.3,0-0.4-0.1S201.2,28.4,201.2,28.3z M202.3,32.4h-1v-3.3h1V32.4z"/>
		<path class="st8" d="M204.7,32.4c0-0.1-0.1-0.2-0.1-0.3c-0.2,0.2-0.4,0.4-0.8,0.4c-0.3,0-0.6-0.1-0.8-0.3s-0.3-0.4-0.3-0.7
			c0-0.4,0.1-0.6,0.4-0.8c0.3-0.2,0.6-0.3,1.1-0.3h0.3v-0.2c0-0.3-0.1-0.5-0.4-0.5c-0.2,0-0.4,0.1-0.4,0.4h-1c0-0.3,0.1-0.6,0.4-0.8
			c0.3-0.2,0.6-0.3,1-0.3s0.7,0.1,1,0.3c0.2,0.2,0.4,0.5,0.4,0.8v1.4c0,0.3,0.1,0.5,0.1,0.7v0.1L204.7,32.4L204.7,32.4z M204.1,31.7
			c0.1,0,0.2,0,0.3-0.1s0.1-0.1,0.2-0.2v-0.5h-0.3c-0.4,0-0.5,0.2-0.5,0.5c0,0.1,0,0.2,0.1,0.2C203.9,31.7,204,31.7,204.1,31.7z"/>
		<path class="st8" d="M207.2,32.4h-1v-4.6h1V32.4z"/>
		<path class="st8" d="M213,30.9c0,0.3-0.1,0.6-0.2,0.8c-0.2,0.2-0.4,0.4-0.6,0.5c-0.3,0.1-0.6,0.2-0.9,0.2c-0.6,0-1-0.2-1.4-0.6
			c-0.3-0.4-0.5-0.9-0.5-1.6V30c0-0.4,0.1-0.8,0.2-1.1c0.1-0.3,0.4-0.6,0.6-0.7c0.3-0.2,0.6-0.3,1-0.3c0.5,0,1,0.1,1.3,0.4
			s0.5,0.7,0.6,1.2H212c0-0.3-0.1-0.5-0.2-0.6c-0.1-0.1-0.3-0.2-0.6-0.2s-0.5,0.1-0.6,0.3s-0.2,0.5-0.2,0.9v0.3c0,0.5,0.1,0.8,0.2,1
			s0.3,0.3,0.6,0.3c0.2,0,0.4-0.1,0.6-0.2c0.1-0.1,0.2-0.3,0.2-0.5h1V30.9z"/>
		<path class="st8" d="M213.3,30.7c0-0.3,0.1-0.6,0.2-0.9c0.1-0.3,0.3-0.4,0.5-0.6c0.2-0.1,0.5-0.2,0.8-0.2c0.5,0,0.9,0.2,1.2,0.5
			s0.4,0.7,0.4,1.2l0,0c0,0.5-0.1,0.9-0.4,1.2c-0.3,0.3-0.7,0.4-1.1,0.4c-0.5,0-0.8-0.1-1.1-0.4c-0.3-0.3-0.4-0.7-0.5-1.1
			L213.3,30.7z M214.3,30.8c0,0.3,0,0.5,0.1,0.7c0.1,0.1,0.2,0.2,0.4,0.2c0.4,0,0.5-0.3,0.6-0.8v-0.1c0-0.6-0.2-0.9-0.6-0.9
			c-0.3,0-0.5,0.3-0.6,0.8L214.3,30.8z"/>
		<path class="st8" d="M216.9,28.3c0-0.1,0.1-0.3,0.2-0.4s0.2-0.1,0.4-0.1s0.3,0,0.4,0.1c0.1,0.1,0.2,0.2,0.2,0.4s-0.1,0.3-0.2,0.4
			c-0.1,0.1-0.2,0.1-0.4,0.1s-0.3,0-0.4-0.1S216.9,28.4,216.9,28.3z M218,32.4h-1v-3.3h1V32.4z"/>
		<path class="st8" d="M219.5,29.1v0.4c0.2-0.3,0.5-0.4,0.9-0.4c0.3,0,0.6,0.1,0.8,0.3c0.2,0.2,0.3,0.5,0.3,0.9v2.1h-1v-2.1
			c0-0.2,0-0.3-0.1-0.4s-0.2-0.1-0.4-0.1s-0.3,0.1-0.4,0.2v2.3h-1V29h0.9V29.1z"/>
		<path class="st8" d="M227.4,30.3c0,0.4-0.1,0.8-0.2,1.1c-0.2,0.3-0.4,0.6-0.7,0.8s-0.6,0.3-1,0.3s-0.7-0.1-1-0.3s-0.5-0.4-0.7-0.7
			c-0.2-0.3-0.2-0.7-0.3-1.1v-0.2c0-0.4,0.1-0.8,0.2-1.1c0.2-0.3,0.4-0.6,0.7-0.8c0.3-0.2,0.6-0.3,1-0.3s0.7,0.1,1,0.3
			s0.5,0.4,0.7,0.8s0.2,0.7,0.2,1.1v0.1H227.4z M226.3,30.1c0-0.4-0.1-0.8-0.2-1c-0.1-0.2-0.4-0.3-0.6-0.3c-0.5,0-0.8,0.4-0.8,1.2
			v0.3c0,0.4,0.1,0.8,0.2,1c0.1,0.2,0.4,0.3,0.6,0.3c0.3,0,0.5-0.1,0.6-0.3c0.1-0.2,0.2-0.6,0.2-1V30.1z"/>
		<path class="st8" d="M228.1,32.4v-2.6h-0.5v-0.7h0.5v-0.3c0-0.4,0.1-0.7,0.3-0.9c0.2-0.2,0.5-0.3,0.9-0.3c0.1,0,0.3,0,0.5,0.1v0.7
			c-0.1,0-0.1,0-0.2,0c-0.3,0-0.5,0.1-0.5,0.4V29h0.6v0.7h-0.6v2.6L228.1,32.4L228.1,32.4z"/>
		<path class="st8" d="M230.3,32.4v-2.6h-0.5v-0.7h0.5v-0.3c0-0.4,0.1-0.7,0.3-0.9c0.2-0.2,0.5-0.3,0.9-0.3c0.1,0,0.3,0,0.5,0.1v0.7
			c-0.1,0-0.1,0-0.2,0c-0.3,0-0.5,0.1-0.5,0.4V29h0.6v0.7h-0.6v2.6L230.3,32.4L230.3,32.4z"/>
		<path class="st8" d="M233.9,32.5c-0.5,0-0.9-0.1-1.2-0.4c-0.3-0.3-0.5-0.7-0.5-1.2v-0.1c0-0.3,0.1-0.6,0.2-0.9
			c0.1-0.3,0.3-0.5,0.5-0.6s0.5-0.2,0.8-0.2c0.5,0,0.8,0.1,1.1,0.4s0.4,0.7,0.4,1.2v0.4h-2c0,0.2,0.1,0.3,0.2,0.4
			c0.1,0.1,0.3,0.2,0.5,0.2c0.3,0,0.6-0.1,0.8-0.3l0.5,0.5c-0.1,0.2-0.3,0.3-0.5,0.4C234.4,32.4,234.2,32.5,233.9,32.5z M233.8,29.9
			c-0.3,0-0.5,0.2-0.5,0.6h1v-0.1c0-0.2,0-0.3-0.1-0.4C234.1,29.9,234,29.9,233.8,29.9z"/>
		<path class="st8" d="M237.7,30.1h-0.3c-0.3,0-0.5,0.1-0.6,0.3v2.1h-1v-3.3h1v0.4c0.2-0.3,0.4-0.5,0.7-0.5c0.1,0,0.2,0,0.3,0
			L237.7,30.1z"/>
		<path class="st8" d="M238,28.3c0-0.1,0.1-0.3,0.2-0.4s0.2-0.1,0.4-0.1s0.3,0,0.4,0.1c0.1,0.1,0.2,0.2,0.2,0.4s-0.1,0.3-0.2,0.4
			c-0.1,0.1-0.2,0.1-0.4,0.1s-0.3,0-0.4-0.1S238,28.4,238,28.3z M239.1,32.4h-1v-3.3h1V32.4z"/>
		<path class="st8" d="M240.7,29.1v0.4c0.2-0.3,0.5-0.4,0.9-0.4c0.3,0,0.6,0.1,0.8,0.3c0.2,0.2,0.3,0.5,0.3,0.9v2.1h-1v-2.1
			c0-0.2,0-0.3-0.1-0.4s-0.2-0.1-0.4-0.1s-0.3,0.1-0.4,0.2v2.3h-1V29h0.9V29.1z"/>
		<path class="st8" d="M243.1,30.7c0-0.3,0.1-0.6,0.2-0.9s0.3-0.4,0.5-0.6c0.2-0.1,0.4-0.2,0.7-0.2s0.6,0.1,0.8,0.3V29h0.9v3.1
			c0,0.3-0.1,0.5-0.2,0.7c-0.1,0.2-0.3,0.4-0.6,0.5s-0.5,0.2-0.9,0.2c-0.2,0-0.5,0-0.7-0.1s-0.4-0.2-0.5-0.4l0.4-0.6
			c0.2,0.2,0.4,0.3,0.7,0.3c0.5,0,0.7-0.2,0.7-0.7v-0.1c-0.2,0.2-0.4,0.3-0.7,0.3c-0.4,0-0.7-0.2-1-0.5S243.1,31.3,243.1,30.7
			L243.1,30.7z M244.1,30.8c0,0.3,0,0.5,0.2,0.6s0.2,0.2,0.4,0.2s0.4-0.1,0.5-0.2V30c-0.1-0.1-0.3-0.2-0.5-0.2s-0.3,0.1-0.4,0.2
			S244.1,30.5,244.1,30.8z"/>
		<path class="st8" d="M248.5,31.5c0-0.1,0-0.2-0.1-0.2c-0.1-0.1-0.3-0.1-0.5-0.2s-0.5-0.1-0.6-0.2c-0.2-0.1-0.3-0.2-0.4-0.3
			c-0.1-0.1-0.1-0.3-0.1-0.4c0-0.3,0.1-0.5,0.4-0.7s0.6-0.3,1-0.3s0.8,0.1,1,0.3s0.4,0.5,0.4,0.8h-1c0-0.3-0.1-0.4-0.4-0.4
			c-0.1,0-0.2,0-0.3,0.1s-0.1,0.1-0.1,0.2s0,0.2,0.1,0.2c0.1,0.1,0.2,0.1,0.4,0.1s0.4,0.1,0.5,0.1c0.5,0.2,0.7,0.5,0.7,0.9
			c0,0.3-0.1,0.5-0.4,0.7c-0.3,0.2-0.6,0.3-1,0.3c-0.3,0-0.5,0-0.7-0.2s-0.4-0.2-0.5-0.4c-0.1-0.2-0.2-0.4-0.2-0.5h0.9
			c0,0.2,0.1,0.3,0.2,0.3c0.1,0.1,0.2,0.1,0.4,0.1c0.1,0,0.2,0,0.3-0.1C248.4,31.6,248.5,31.6,248.5,31.5z"/>
		<path class="st8" d="M251.5,30.6c0-0.5,0.1-0.9,0.2-1.4c0.1-0.4,0.3-0.8,0.5-1.1c0.2-0.3,0.5-0.5,0.8-0.6l0.2,0.5
			c-0.3,0.2-0.5,0.5-0.7,1c-0.2,0.4-0.2,1-0.2,1.5v0.1c0,0.6,0.1,1.1,0.2,1.6c0.2,0.4,0.4,0.8,0.7,1l-0.2,0.5
			c-0.3-0.1-0.5-0.3-0.8-0.6c-0.2-0.3-0.4-0.7-0.5-1.1c-0.1-0.4-0.2-0.9-0.2-1.3V30.6z"/>
		<path class="st8" d="M253.6,28.3c0-0.1,0.1-0.3,0.2-0.4s0.2-0.1,0.4-0.1s0.3,0,0.4,0.1c0.1,0.1,0.2,0.2,0.2,0.4s-0.1,0.3-0.2,0.4
			c-0.1,0.1-0.2,0.1-0.4,0.1s-0.3,0-0.4-0.1S253.6,28.4,253.6,28.3z M254.7,32.4h-1v-3.3h1V32.4z"/>
		<path class="st8" d="M256.7,31.7c0.1,0,0.3,0,0.3-0.1c0.1-0.1,0.1-0.2,0.1-0.3h1c0,0.4-0.1,0.7-0.4,0.9s-0.6,0.3-1,0.3
			c-0.5,0-0.8-0.1-1.1-0.4c-0.3-0.3-0.4-0.7-0.4-1.2l0,0c0-0.3,0.1-0.6,0.2-0.9s0.3-0.4,0.5-0.6c0.2-0.1,0.5-0.2,0.8-0.2
			c0.4,0,0.8,0.1,1,0.4c0.2,0.2,0.4,0.6,0.4,1h-1c0-0.2,0-0.3-0.1-0.4s-0.2-0.1-0.3-0.1c-0.3,0-0.4,0.2-0.5,0.5c0,0.1,0,0.3,0,0.4
			c0,0.3,0,0.6,0.1,0.7S256.5,31.7,256.7,31.7z"/>
		<path class="st8" d="M258.4,30.7c0-0.3,0.1-0.6,0.2-0.9s0.3-0.4,0.5-0.6c0.2-0.1,0.5-0.2,0.8-0.2c0.5,0,0.9,0.2,1.2,0.5
			s0.4,0.7,0.4,1.2l0,0c0,0.5-0.1,0.9-0.4,1.2c-0.3,0.3-0.7,0.4-1.1,0.4c-0.5,0-0.8-0.1-1.1-0.4c-0.3-0.3-0.4-0.7-0.5-1.1V30.7z
			 M259.4,30.8c0,0.3,0,0.5,0.1,0.7c0.1,0.1,0.2,0.2,0.4,0.2c0.4,0,0.5-0.3,0.6-0.8v-0.1c0-0.6-0.2-0.9-0.6-0.9
			c-0.3,0-0.5,0.3-0.6,0.8L259.4,30.8z"/>
		<path class="st8" d="M263.6,30.7c0,0.5-0.1,0.9-0.2,1.3c-0.1,0.4-0.3,0.8-0.6,1.1s-0.5,0.5-0.8,0.6l-0.2-0.5
			c0.3-0.2,0.5-0.5,0.6-1c0.2-0.4,0.2-0.9,0.2-1.5v-0.2c0-0.6-0.1-1.1-0.2-1.6c-0.2-0.4-0.4-0.8-0.7-1l0.2-0.5
			c0.3,0.1,0.5,0.3,0.8,0.6c0.2,0.3,0.4,0.7,0.6,1.1s0.2,0.9,0.2,1.3v0.3H263.6z"/>
	</g>
	<g>
		<path class="st8" d="M215.5,56.3h-1.7v1h2v0.8h-3v-4.4h3v0.8h-2v0.9h1.7V56.3z"/>
		<path class="st8" d="M217.9,57.3c0-0.1,0-0.2-0.1-0.2c-0.1-0.1-0.3-0.1-0.5-0.2s-0.5-0.1-0.6-0.2c-0.2-0.1-0.3-0.2-0.4-0.3
			c-0.1-0.1-0.1-0.3-0.1-0.4c0-0.3,0.1-0.5,0.4-0.7s0.6-0.3,1-0.3s0.8,0.1,1,0.3s0.4,0.5,0.4,0.8h-1c0-0.3-0.1-0.4-0.4-0.4
			c-0.1,0-0.2,0-0.3,0.1s-0.1,0.1-0.1,0.2c0,0.1,0,0.2,0.1,0.2c0.1,0.1,0.2,0.1,0.4,0.1s0.4,0.1,0.5,0.1c0.5,0.2,0.7,0.5,0.7,0.9
			c0,0.3-0.1,0.5-0.4,0.7c-0.3,0.2-0.6,0.3-1,0.3c-0.3,0-0.5,0-0.7-0.2s-0.4-0.2-0.5-0.4s-0.2-0.4-0.2-0.5h0.9
			c0,0.2,0.1,0.3,0.2,0.3c0.1,0.1,0.2,0.1,0.4,0.1c0.1,0,0.2,0,0.3-0.1C217.9,57.4,217.9,57.4,217.9,57.3z"/>
		<path class="st8" d="M220.5,54.1v0.8h0.5v0.7h-0.5v1.5c0,0.1,0,0.2,0.1,0.3c0,0,0.1,0.1,0.3,0.1c0.1,0,0.2,0,0.3,0v0.7
			c-0.2,0.1-0.4,0.1-0.6,0.1c-0.3,0-0.6-0.1-0.8-0.2c-0.2-0.2-0.2-0.4-0.2-0.8v-1.6h-0.4V55h0.4v-0.8L220.5,54.1L220.5,54.1z"/>
		<path class="st8" d="M223.3,58.2c0-0.1-0.1-0.2-0.1-0.3c-0.2,0.2-0.4,0.4-0.8,0.4c-0.3,0-0.6-0.1-0.8-0.3s-0.3-0.4-0.3-0.7
			c0-0.4,0.1-0.6,0.4-0.8c0.3-0.2,0.6-0.3,1.1-0.3h0.3V56c0-0.3-0.1-0.5-0.4-0.5c-0.2,0-0.4,0.1-0.4,0.4h-1c0-0.3,0.1-0.6,0.4-0.8
			c0.3-0.2,0.6-0.3,1-0.3s0.7,0.1,1,0.3c0.2,0.2,0.4,0.5,0.4,0.8v1.4c0,0.3,0.1,0.5,0.1,0.7v0.1L223.3,58.2L223.3,58.2z M222.7,57.5
			c0.1,0,0.2,0,0.3-0.1s0.1-0.1,0.2-0.2v-0.5h-0.3c-0.4,0-0.5,0.2-0.5,0.5c0,0.1,0,0.2,0.1,0.2C222.5,57.5,222.6,57.5,222.7,57.5z"
			/>
		<path class="st8" d="M227.8,56.6c0,0.5-0.1,0.9-0.3,1.2s-0.5,0.4-0.9,0.4c-0.3,0-0.6-0.1-0.8-0.4v0.3h-0.9v-4.6h1v1.6
			c0.2-0.2,0.4-0.3,0.7-0.3c0.4,0,0.7,0.1,0.9,0.4S227.8,56,227.8,56.6L227.8,56.6z M226.8,56.5c0-0.3,0-0.5-0.1-0.7
			c-0.1-0.1-0.2-0.2-0.4-0.2s-0.4,0.1-0.5,0.3v1.3c0.1,0.2,0.2,0.3,0.5,0.3c0.2,0,0.4-0.1,0.5-0.3C226.7,57,226.8,56.8,226.8,56.5z"
			/>
		<path class="st8" d="M229.3,58.2h-1v-4.6h1V58.2z"/>
		<path class="st8" d="M229.9,54.1c0-0.1,0.1-0.3,0.2-0.4s0.2-0.1,0.4-0.1s0.3,0,0.4,0.1c0.1,0.1,0.2,0.2,0.2,0.4s-0.1,0.3-0.2,0.4
			c-0.1,0.1-0.2,0.1-0.4,0.1s-0.3,0-0.4-0.1S229.9,54.2,229.9,54.1z M231,58.2h-1v-3.3h1V58.2z"/>
		<path class="st8" d="M233.3,57.3c0-0.1,0-0.2-0.1-0.2c-0.1-0.1-0.3-0.1-0.5-0.2s-0.5-0.1-0.6-0.2c-0.2-0.1-0.3-0.2-0.4-0.3
			c-0.1-0.1-0.1-0.3-0.1-0.4c0-0.3,0.1-0.5,0.4-0.7s0.6-0.3,1-0.3s0.8,0.1,1,0.3s0.4,0.5,0.4,0.8h-1c0-0.3-0.1-0.4-0.4-0.4
			c-0.1,0-0.2,0-0.3,0.1s-0.1,0.1-0.1,0.2c0,0.1,0,0.2,0.1,0.2c0.1,0.1,0.2,0.1,0.4,0.1s0.4,0.1,0.5,0.1c0.5,0.2,0.7,0.5,0.7,0.9
			c0,0.3-0.1,0.5-0.4,0.7c-0.3,0.2-0.6,0.3-1,0.3c-0.3,0-0.5,0-0.7-0.2s-0.4-0.2-0.5-0.4s-0.2-0.4-0.2-0.5h0.9
			c0,0.2,0.1,0.3,0.2,0.3c0.1,0.1,0.2,0.1,0.4,0.1c0.1,0,0.2,0,0.3-0.1C233.3,57.4,233.3,57.4,233.3,57.3z"/>
		<path class="st8" d="M235.8,55.3c0.2-0.3,0.5-0.4,0.8-0.4c0.4,0,0.6,0.1,0.8,0.3s0.3,0.5,0.3,0.9v2.1h-1v-2c0-0.2,0-0.3-0.1-0.4
			c-0.1-0.1-0.2-0.1-0.4-0.1s-0.4,0.1-0.4,0.2v2.3h-1v-4.6h1L235.8,55.3L235.8,55.3z"/>
		<path class="st8" d="M241.6,58.2c0-0.1-0.1-0.2-0.1-0.3c-0.2,0.2-0.4,0.4-0.8,0.4c-0.3,0-0.6-0.1-0.8-0.3s-0.3-0.4-0.3-0.7
			c0-0.4,0.1-0.6,0.4-0.8c0.3-0.2,0.6-0.3,1.1-0.3h0.3V56c0-0.3-0.1-0.5-0.4-0.5c-0.2,0-0.4,0.1-0.4,0.4h-1c0-0.3,0.1-0.6,0.4-0.8
			c0.3-0.2,0.6-0.3,1-0.3s0.7,0.1,1,0.3c0.2,0.2,0.4,0.5,0.4,0.8v1.4c0,0.3,0.1,0.5,0.1,0.7v0.1L241.6,58.2L241.6,58.2z M241,57.5
			c0.1,0,0.2,0,0.3-0.1s0.1-0.1,0.2-0.2v-0.5h-0.3c-0.4,0-0.5,0.2-0.5,0.5c0,0.1,0,0.2,0.1,0.2C240.8,57.5,240.9,57.5,241,57.5z"/>
		<path class="st8" d="M248.1,54.6h-1.3v3.6h-1.1v-3.6h-1.3v-0.8h3.7L248.1,54.6L248.1,54.6z"/>
		<path class="st8" d="M250.2,57l0.9-3.2h1.2l-1.5,4.4h-1.2l-1.5-4.4h1.2L250.2,57z"/>
		<path class="st8" d="M255,54.9v0.4c0.2-0.3,0.5-0.4,0.9-0.4c0.3,0,0.6,0.1,0.8,0.3c0.2,0.2,0.3,0.5,0.3,0.9v2.1h-1v-2.1
			c0-0.2,0-0.3-0.1-0.4c-0.1-0.1-0.2-0.1-0.4-0.1s-0.3,0.1-0.4,0.2v2.3h-1v-3.3L255,54.9L255,54.9z"/>
		<path class="st8" d="M259.2,58.2c-0.5,0-0.9-0.1-1.2-0.4c-0.3-0.3-0.5-0.7-0.5-1.2v-0.1c0-0.3,0.1-0.6,0.2-0.9
			c0.1-0.3,0.3-0.5,0.5-0.6s0.5-0.2,0.8-0.2c0.5,0,0.8,0.1,1.1,0.4c0.3,0.3,0.4,0.7,0.4,1.2v0.4h-2c0,0.2,0.1,0.3,0.2,0.4
			c0.1,0.1,0.3,0.2,0.5,0.2c0.3,0,0.6-0.1,0.8-0.3l0.5,0.5c-0.1,0.2-0.3,0.3-0.5,0.4C259.7,58.2,259.4,58.2,259.2,58.2z M259,55.7
			c-0.3,0-0.5,0.2-0.5,0.6h1v-0.1c0-0.2,0-0.3-0.1-0.4C259.3,55.7,259.2,55.7,259,55.7z"/>
		<path class="st8" d="M262.1,54.1v0.8h0.5v0.7h-0.5v1.5c0,0.1,0,0.2,0.1,0.3c0,0,0.1,0.1,0.3,0.1c0.1,0,0.2,0,0.3,0v0.7
			c-0.2,0.1-0.4,0.1-0.6,0.1c-0.3,0-0.6-0.1-0.8-0.2c-0.2-0.2-0.2-0.4-0.2-0.8v-1.6h-0.4V55h0.4v-0.8L262.1,54.1L262.1,54.1z"/>
		<path class="st8" d="M265.9,56.8l0.3-1.9h1l-0.8,3.3h-0.9l-0.5-1.9l-0.5,1.9h-0.9l-0.8-3.3h1l0.3,2l0.5-2h0.7L265.9,56.8z"/>
		<path class="st8" d="M267.4,56.5c0-0.3,0.1-0.6,0.2-0.9c0.1-0.3,0.3-0.4,0.5-0.6c0.2-0.1,0.5-0.2,0.8-0.2c0.5,0,0.9,0.2,1.2,0.5
			s0.4,0.7,0.4,1.2l0,0c0,0.5-0.1,0.9-0.4,1.2s-0.7,0.4-1.1,0.4c-0.5,0-0.8-0.1-1.1-0.4c-0.3-0.3-0.4-0.7-0.5-1.1V56.5z M268.4,56.6
			c0,0.3,0,0.5,0.1,0.7c0.1,0.1,0.2,0.2,0.4,0.2c0.4,0,0.5-0.3,0.6-0.8v-0.1c0-0.6-0.2-0.9-0.6-0.9c-0.3,0-0.5,0.3-0.6,0.8
			L268.4,56.6z"/>
		<path class="st8" d="M273,55.8h-0.3c-0.3,0-0.5,0.1-0.6,0.3v2.1h-1v-3.3h1v0.4c0.2-0.3,0.4-0.5,0.7-0.5c0.1,0,0.2,0,0.3,0
			L273,55.8z"/>
		<path class="st8" d="M274.6,57l-0.3,0.3v0.9h-1v-4.6h1V56l0.1-0.1l0.8-1h1.2l-1.1,1.3l1.2,1.9h-1.2L274.6,57z"/>
		<path class="st8" d="M214.6,65.6c0-0.1-0.1-0.2-0.1-0.3c-0.2,0.2-0.4,0.4-0.8,0.4c-0.3,0-0.6-0.1-0.8-0.3s-0.3-0.4-0.3-0.7
			c0-0.4,0.1-0.6,0.4-0.8c0.3-0.2,0.6-0.3,1.1-0.3h0.3v-0.2c0-0.3-0.1-0.5-0.4-0.5c-0.2,0-0.4,0.1-0.4,0.4h-1c0-0.3,0.1-0.6,0.4-0.8
			c0.3-0.2,0.6-0.3,1-0.3s0.7,0.1,1,0.3c0.2,0.2,0.4,0.5,0.4,0.8v1.4c0,0.3,0.1,0.5,0.1,0.7v0.1h-0.9V65.6z M214,64.9
			c0.1,0,0.2,0,0.3-0.1s0.1-0.1,0.2-0.2v-0.5h-0.3c-0.4,0-0.5,0.2-0.5,0.5c0,0.1,0,0.2,0.1,0.2C213.8,64.9,213.9,64.9,214,64.9z"/>
		<path class="st8" d="M217,62.3v0.4c0.2-0.3,0.5-0.4,0.9-0.4c0.3,0,0.6,0.1,0.8,0.3s0.3,0.5,0.3,0.9v2.1h-1v-2.1
			c0-0.2,0-0.3-0.1-0.4c-0.1-0.1-0.2-0.1-0.4-0.1s-0.3,0.1-0.4,0.2v2.3h-1v-3.3L217,62.3L217,62.3z"/>
		<path class="st8" d="M219.4,63.9c0-0.5,0.1-0.9,0.3-1.2s0.5-0.4,0.9-0.4c0.3,0,0.5,0.1,0.7,0.3V61h1v4.6h-0.9l-0.1-0.3
			c-0.2,0.3-0.5,0.4-0.8,0.4c-0.4,0-0.7-0.1-0.9-0.4C219.5,64.9,219.4,64.5,219.4,63.9z M220.4,64c0,0.6,0.2,0.9,0.5,0.9
			c0.2,0,0.4-0.1,0.5-0.3v-1.2c-0.1-0.2-0.3-0.3-0.5-0.3c-0.3,0-0.5,0.3-0.5,0.8V64z"/>
		<path class="st8" d="M225.6,65.6h-1V61h1V65.6z"/>
		<path class="st8" d="M228,65.6c0-0.1-0.1-0.2-0.1-0.3c-0.2,0.2-0.4,0.4-0.8,0.4c-0.3,0-0.6-0.1-0.8-0.3S226,65,226,64.7
			c0-0.4,0.1-0.6,0.4-0.8c0.3-0.2,0.6-0.3,1.1-0.3h0.3v-0.2c0-0.3-0.1-0.5-0.4-0.5c-0.2,0-0.4,0.1-0.4,0.4h-1c0-0.3,0.1-0.6,0.4-0.8
			c0.3-0.2,0.6-0.3,1-0.3s0.7,0.1,1,0.3c0.2,0.2,0.4,0.5,0.4,0.8v1.4c0,0.3,0.1,0.5,0.1,0.7v0.1H228V65.6z M227.4,64.9
			c0.1,0,0.2,0,0.3-0.1s0.1-0.1,0.2-0.2v-0.5h-0.3c-0.4,0-0.5,0.2-0.5,0.5c0,0.1,0,0.2,0.1,0.2C227.2,64.9,227.3,64.9,227.4,64.9z"
			/>
		<path class="st8" d="M231.4,65.2c-0.2,0.3-0.5,0.4-0.9,0.4s-0.6-0.1-0.8-0.3c-0.2-0.2-0.3-0.5-0.3-0.9v-2.1h1v2.1
			c0,0.3,0.1,0.4,0.4,0.4c0.2,0,0.4-0.1,0.5-0.2v-2.3h1v3.3h-1L231.4,65.2z"/>
		<path class="st8" d="M233.9,62.3v0.4c0.2-0.3,0.5-0.4,0.9-0.4c0.3,0,0.6,0.1,0.8,0.3s0.3,0.5,0.3,0.9v2.1h-1v-2.1
			c0-0.2,0-0.3-0.1-0.4c-0.1-0.1-0.2-0.1-0.4-0.1s-0.3,0.1-0.4,0.2v2.3h-1v-3.3L233.9,62.3L233.9,62.3z"/>
		<path class="st8" d="M237.8,64.9c0.1,0,0.3,0,0.3-0.1c0.1-0.1,0.1-0.2,0.1-0.3h1c0,0.4-0.1,0.7-0.4,0.9c-0.3,0.2-0.6,0.3-1,0.3
			c-0.5,0-0.8-0.1-1.1-0.4s-0.4-0.7-0.4-1.2l0,0c0-0.3,0.1-0.6,0.2-0.9s0.3-0.4,0.5-0.6c0.2-0.1,0.5-0.2,0.8-0.2
			c0.4,0,0.8,0.1,1,0.4c0.2,0.2,0.4,0.6,0.4,1h-1c0-0.2,0-0.3-0.1-0.4s-0.2-0.1-0.3-0.1c-0.3,0-0.4,0.2-0.5,0.5c0,0.1,0,0.3,0,0.4
			c0,0.3,0,0.6,0.1,0.7S237.6,64.9,237.8,64.9z"/>
		<path class="st8" d="M240.6,62.7c0.2-0.3,0.5-0.4,0.8-0.4c0.4,0,0.6,0.1,0.8,0.3s0.3,0.5,0.3,0.9v2.1h-1v-2c0-0.2,0-0.3-0.1-0.4
			c-0.1-0.1-0.2-0.1-0.4-0.1s-0.4,0.1-0.4,0.2v2.3h-1V61h1L240.6,62.7L240.6,62.7z"/>
		<path class="st8" d="M246.5,65.6c0-0.1-0.1-0.2-0.1-0.3c-0.2,0.2-0.4,0.4-0.8,0.4c-0.3,0-0.6-0.1-0.8-0.3s-0.3-0.4-0.3-0.7
			c0-0.4,0.1-0.6,0.4-0.8c0.3-0.2,0.6-0.3,1.1-0.3h0.3v-0.2c0-0.3-0.1-0.5-0.4-0.5c-0.2,0-0.4,0.1-0.4,0.4h-1c0-0.3,0.1-0.6,0.4-0.8
			c0.3-0.2,0.6-0.3,1-0.3s0.7,0.1,1,0.3c0.2,0.2,0.4,0.5,0.4,0.8v1.4c0,0.3,0.1,0.5,0.1,0.7v0.1h-0.9V65.6z M245.9,64.9
			c0.1,0,0.2,0,0.3-0.1s0.1-0.1,0.2-0.2v-0.5h-0.3c-0.4,0-0.5,0.2-0.5,0.5c0,0.1,0,0.2,0.1,0.2C245.7,64.9,245.8,64.9,245.9,64.9z"
			/>
		<path class="st8" d="M248.9,62.3v0.4c0.2-0.3,0.5-0.4,0.9-0.4c0.3,0,0.6,0.1,0.8,0.3s0.3,0.5,0.3,0.9v2.1h-1v-2.1
			c0-0.2,0-0.3-0.1-0.4c-0.1-0.1-0.2-0.1-0.4-0.1s-0.3,0.1-0.4,0.2v2.3h-1v-3.3L248.9,62.3L248.9,62.3z"/>
		<path class="st8" d="M254.8,65.6c0-0.1-0.1-0.2-0.1-0.3c-0.2,0.2-0.4,0.4-0.8,0.4c-0.3,0-0.6-0.1-0.8-0.3s-0.3-0.4-0.3-0.7
			c0-0.4,0.1-0.6,0.4-0.8c0.3-0.2,0.6-0.3,1.1-0.3h0.3v-0.2c0-0.3-0.1-0.5-0.4-0.5c-0.2,0-0.4,0.1-0.4,0.4h-1c0-0.3,0.1-0.6,0.4-0.8
			c0.3-0.2,0.6-0.3,1-0.3s0.7,0.1,1,0.3c0.2,0.2,0.4,0.5,0.4,0.8v1.4c0,0.3,0.1,0.5,0.1,0.7v0.1h-0.9V65.6z M254.1,64.9
			c0.1,0,0.2,0,0.3-0.1s0.1-0.1,0.2-0.2v-0.5h-0.3c-0.4,0-0.5,0.2-0.5,0.5c0,0.1,0,0.2,0.1,0.2C254,64.9,254,64.9,254.1,64.9z"/>
		<path class="st8" d="M259.2,64c0,0.5-0.1,0.9-0.3,1.2s-0.5,0.5-0.9,0.5c-0.3,0-0.5-0.1-0.7-0.3v1.5h-1v-4.5h0.9v0.3
			c0.2-0.2,0.5-0.4,0.8-0.4c0.4,0,0.7,0.1,0.9,0.4C259.1,63,259.2,63.4,259.2,64L259.2,64z M258.2,63.9c0-0.6-0.2-0.9-0.5-0.9
			c-0.2,0-0.4,0.1-0.5,0.3v1.3c0.1,0.2,0.3,0.3,0.5,0.3c0.3,0,0.5-0.3,0.5-0.8V63.9z"/>
		<path class="st8" d="M262.7,64c0,0.5-0.1,0.9-0.3,1.2s-0.5,0.5-0.9,0.5c-0.3,0-0.5-0.1-0.7-0.3v1.5h-1v-4.5h0.9v0.3
			c0.2-0.2,0.5-0.4,0.8-0.4c0.4,0,0.7,0.1,0.9,0.4C262.6,63,262.7,63.4,262.7,64L262.7,64z M261.7,63.9c0-0.6-0.2-0.9-0.5-0.9
			c-0.2,0-0.4,0.1-0.5,0.3v1.3c0.1,0.2,0.3,0.3,0.5,0.3c0.3,0,0.5-0.3,0.5-0.8V63.9z"/>
		<path class="st8" d="M264.2,65.6h-1V61h1V65.6z"/>
		<path class="st8" d="M264.9,61.5c0-0.1,0.1-0.3,0.2-0.4s0.2-0.1,0.4-0.1c0.2,0,0.3,0,0.4,0.1s0.2,0.2,0.2,0.4s-0.1,0.3-0.2,0.4
			c-0.1,0.1-0.2,0.1-0.4,0.1c-0.2,0-0.3,0-0.4-0.1S264.9,61.6,264.9,61.5z M265.9,65.6h-1v-3.3h1V65.6z"/>
		<path class="st8" d="M267.9,64.9c0.1,0,0.3,0,0.3-0.1c0.1-0.1,0.1-0.2,0.1-0.3h1c0,0.4-0.1,0.7-0.4,0.9c-0.3,0.2-0.6,0.3-1,0.3
			c-0.5,0-0.8-0.1-1.1-0.4c-0.3-0.3-0.4-0.7-0.4-1.2l0,0c0-0.3,0.1-0.6,0.2-0.9s0.3-0.4,0.5-0.6c0.2-0.1,0.5-0.2,0.8-0.2
			c0.4,0,0.8,0.1,1,0.4c0.2,0.2,0.4,0.6,0.4,1h-1c0-0.2,0-0.3-0.1-0.4s-0.2-0.1-0.3-0.1c-0.3,0-0.4,0.2-0.5,0.5c0,0.1,0,0.3,0,0.4
			c0,0.3,0,0.6,0.1,0.7S267.8,64.9,267.9,64.9z"/>
		<path class="st8" d="M271.6,65.6c0-0.1-0.1-0.2-0.1-0.3c-0.2,0.2-0.4,0.4-0.8,0.4c-0.3,0-0.6-0.1-0.8-0.3s-0.3-0.4-0.3-0.7
			c0-0.4,0.1-0.6,0.4-0.8s0.6-0.3,1.1-0.3h0.3v-0.2c0-0.3-0.1-0.5-0.4-0.5c-0.2,0-0.4,0.1-0.4,0.4h-1c0-0.3,0.1-0.6,0.4-0.8
			s0.6-0.3,1-0.3s0.7,0.1,1,0.3c0.2,0.2,0.4,0.5,0.4,0.8v1.4c0,0.3,0.1,0.5,0.1,0.7v0.1h-0.9V65.6z M271,64.9c0.1,0,0.2,0,0.3-0.1
			c0.1-0.1,0.1-0.1,0.2-0.2v-0.5h-0.3c-0.4,0-0.5,0.2-0.5,0.5c0,0.1,0,0.2,0.1,0.2C270.8,64.9,270.9,64.9,271,64.9z"/>
		<path class="st8" d="M274.2,61.5v0.8h0.5V63h-0.5v1.5c0,0.1,0,0.2,0.1,0.3c0,0,0.1,0.1,0.3,0.1c0.1,0,0.2,0,0.3,0v0.7
			c-0.2,0.1-0.4,0.1-0.6,0.1c-0.3,0-0.6-0.1-0.8-0.2c-0.2-0.2-0.2-0.4-0.2-0.8V63h-0.4v-0.7h0.4v-0.8H274.2z"/>
		<path class="st8" d="M275.1,61.5c0-0.1,0.1-0.3,0.2-0.4s0.2-0.1,0.4-0.1c0.2,0,0.3,0,0.4,0.1s0.2,0.2,0.2,0.4s-0.1,0.3-0.2,0.4
			c-0.1,0.1-0.2,0.1-0.4,0.1c-0.2,0-0.3,0-0.4-0.1S275.1,61.6,275.1,61.5z M276.2,65.6h-1v-3.3h1V65.6z"/>
		<path class="st8" d="M276.7,63.9c0-0.3,0.1-0.6,0.2-0.9c0.1-0.3,0.3-0.4,0.5-0.6c0.2-0.1,0.5-0.2,0.8-0.2c0.5,0,0.9,0.2,1.2,0.5
			s0.4,0.7,0.4,1.2l0,0c0,0.5-0.1,0.9-0.4,1.2c-0.3,0.3-0.7,0.4-1.1,0.4c-0.5,0-0.8-0.1-1.1-0.4C276.9,64.8,276.8,64.4,276.7,63.9
			L276.7,63.9z M277.7,64c0,0.3,0,0.5,0.1,0.7c0.1,0.1,0.2,0.2,0.4,0.2c0.4,0,0.5-0.3,0.6-0.8V64c0-0.6-0.2-0.9-0.6-0.9
			c-0.3,0-0.5,0.3-0.6,0.8L277.7,64z"/>
		<path class="st8" d="M281.2,62.3v0.4c0.2-0.3,0.5-0.4,0.9-0.4c0.3,0,0.6,0.1,0.8,0.3c0.2,0.2,0.3,0.5,0.3,0.9v2.1h-1v-2.1
			c0-0.2,0-0.3-0.1-0.4c-0.1-0.1-0.2-0.1-0.4-0.1c-0.2,0-0.3,0.1-0.4,0.2v2.3h-1v-3.3L281.2,62.3L281.2,62.3z"/>
	</g>
	<g>
		<path class="st8" d="M206.7,134.4h-1.3v3.6h-1.1v-3.6H203v-0.8h3.7V134.4z"/>
		<path class="st8" d="M207,136.3c0-0.3,0.1-0.6,0.2-0.9c0.1-0.3,0.3-0.4,0.5-0.6c0.2-0.1,0.5-0.2,0.8-0.2c0.5,0,0.9,0.2,1.2,0.5
			s0.4,0.7,0.4,1.2l0,0c0,0.5-0.1,0.9-0.4,1.2c-0.3,0.3-0.7,0.4-1.1,0.4c-0.5,0-0.8-0.1-1.1-0.4C207.2,137.2,207.1,136.8,207,136.3
			L207,136.3z M208,136.4c0,0.3,0,0.5,0.1,0.7c0.1,0.1,0.2,0.2,0.4,0.2c0.4,0,0.5-0.3,0.6-0.8v-0.1c0-0.6-0.2-0.9-0.6-0.9
			c-0.3,0-0.5,0.3-0.6,0.8L208,136.4z"/>
		<path class="st8" d="M211.9,136.8l-0.3,0.3v0.9h-1v-4.6h1v2.5l0.1-0.1l0.8-1h1.2l-1.1,1.3l1.2,1.9h-1.2L211.9,136.8z"/>
		<path class="st8" d="M215.5,138c-0.5,0-0.9-0.1-1.2-0.4c-0.3-0.3-0.5-0.7-0.5-1.2v-0.1c0-0.3,0.1-0.6,0.2-0.9
			c0.1-0.3,0.3-0.5,0.5-0.6s0.5-0.2,0.8-0.2c0.5,0,0.8,0.1,1.1,0.4c0.3,0.3,0.4,0.7,0.4,1.2v0.4h-2c0,0.2,0.1,0.3,0.2,0.4
			c0.1,0.1,0.3,0.2,0.5,0.2c0.3,0,0.6-0.1,0.8-0.3l0.5,0.5c-0.1,0.2-0.3,0.3-0.5,0.4S215.8,138,215.5,138z M215.4,135.4
			c-0.3,0-0.5,0.2-0.5,0.6h1l0,0c0-0.2,0-0.3-0.1-0.4C215.7,135.5,215.6,135.4,215.4,135.4z"/>
		<path class="st8" d="M218.2,134.7v0.4c0.2-0.3,0.5-0.4,0.9-0.4c0.3,0,0.6,0.1,0.8,0.3s0.3,0.5,0.3,0.9v2.1h-1v-2.1
			c0-0.2,0-0.3-0.1-0.4s-0.2-0.1-0.4-0.1s-0.3,0.1-0.4,0.2v2.3h-1v-3.3h0.9V134.7z"/>
		<path class="st8" d="M225.3,136.4c0,0.5-0.1,0.9-0.3,1.2s-0.5,0.4-0.9,0.4c-0.3,0-0.6-0.1-0.8-0.4v0.3h-0.9v-4.6h1v1.6
			c0.2-0.2,0.4-0.3,0.7-0.3c0.4,0,0.7,0.1,0.9,0.4S225.3,135.8,225.3,136.4L225.3,136.4z M224.3,136.3c0-0.3,0-0.5-0.1-0.7
			c-0.1-0.1-0.2-0.2-0.4-0.2s-0.4,0.1-0.5,0.3v1.3c0.1,0.2,0.2,0.3,0.5,0.3c0.2,0,0.4-0.1,0.5-0.3
			C224.3,136.8,224.3,136.6,224.3,136.3z"/>
		<path class="st8" d="M227.7,137.6c-0.2,0.3-0.5,0.4-0.9,0.4s-0.6-0.1-0.8-0.3s-0.3-0.5-0.3-0.9v-2.1h1v2.1c0,0.3,0.1,0.4,0.4,0.4
			c0.2,0,0.4-0.1,0.5-0.2v-2.3h1v3.3h-1L227.7,137.6z"/>
		<path class="st8" d="M231.2,135.6h-0.3c-0.3,0-0.5,0.1-0.6,0.3v2.1h-1v-3.3h1v0.4c0.2-0.3,0.4-0.5,0.7-0.5c0.1,0,0.2,0,0.3,0
			L231.2,135.6z"/>
		<path class="st8" d="M232.5,134.7v0.4c0.2-0.3,0.5-0.4,0.9-0.4c0.3,0,0.6,0.1,0.8,0.3s0.3,0.5,0.3,0.9v2.1h-1v-2.1
			c0-0.2,0-0.3-0.1-0.4s-0.2-0.1-0.4-0.1s-0.3,0.1-0.4,0.2v2.3h-1v-3.3h0.9V134.7z"/>
		<path class="st8" d="M235.1,133.9c0-0.1,0.1-0.3,0.2-0.4c0.1-0.1,0.2-0.1,0.4-0.1s0.3,0,0.4,0.1c0.1,0.1,0.2,0.2,0.2,0.4
			s-0.1,0.3-0.2,0.4c-0.1,0.1-0.2,0.1-0.4,0.1s-0.3,0-0.4-0.1S235.1,134,235.1,133.9z M236.1,138h-1v-3.3h1V138z"/>
		<path class="st8" d="M237.7,134.7v0.4c0.2-0.3,0.5-0.4,0.9-0.4c0.3,0,0.6,0.1,0.8,0.3s0.3,0.5,0.3,0.9v2.1h-1v-2.1
			c0-0.2,0-0.3-0.1-0.4s-0.2-0.1-0.4-0.1s-0.3,0.1-0.4,0.2v2.3h-1v-3.3h0.9V134.7z"/>
		<path class="st8" d="M240.1,136.3c0-0.3,0.1-0.6,0.2-0.9s0.3-0.4,0.5-0.6s0.4-0.2,0.7-0.2s0.6,0.1,0.8,0.3v-0.3h0.9v3.1
			c0,0.3-0.1,0.5-0.2,0.7c-0.1,0.2-0.3,0.4-0.6,0.5s-0.5,0.2-0.9,0.2c-0.2,0-0.5,0-0.7-0.1s-0.4-0.2-0.5-0.4l0.4-0.6
			c0.2,0.2,0.4,0.3,0.7,0.3c0.5,0,0.7-0.2,0.7-0.7v-0.1c-0.2,0.2-0.4,0.3-0.7,0.3c-0.4,0-0.7-0.2-1-0.5
			C240.2,137.3,240.1,136.9,240.1,136.3L240.1,136.3z M241.1,136.4c0,0.3,0,0.5,0.2,0.6s0.2,0.2,0.4,0.2s0.4-0.1,0.5-0.2v-1.4
			c-0.1-0.1-0.3-0.2-0.5-0.2s-0.3,0.1-0.4,0.2C241.2,135.8,241.1,136.1,241.1,136.4z"/>
	</g>
	<g>
		<path class="st8" d="M25.6,69.7v1.5h-1.1v-4.4h1.8c0.3,0,0.6,0.1,0.9,0.2s0.5,0.3,0.6,0.5S28,68,28,68.3c0,0.4-0.2,0.8-0.5,1
			s-0.7,0.4-1.3,0.4C26.2,69.7,25.6,69.7,25.6,69.7z M25.6,68.9h0.7c0.2,0,0.4-0.1,0.5-0.2s0.2-0.2,0.2-0.4c0-0.2-0.1-0.4-0.2-0.5
			s-0.3-0.2-0.5-0.2h-0.7V68.9z"/>
		<path class="st8" d="M30.5,70.9c-0.2,0.3-0.5,0.4-0.9,0.4S29,71.2,28.8,71s-0.3-0.5-0.3-0.9V68h1v2.1c0,0.3,0.1,0.4,0.4,0.4
			c0.2,0,0.4-0.1,0.5-0.2V68h1v3.3h-1L30.5,70.9z"/>
		<path class="st8" d="M35,69.6c0,0.5-0.1,0.9-0.3,1.2c-0.2,0.3-0.5,0.4-0.9,0.4c-0.3,0-0.6-0.1-0.8-0.4v0.3h-1v-4.6h1v1.6
			c0.2-0.2,0.4-0.3,0.7-0.3c0.4,0,0.7,0.1,0.9,0.4C34.9,68.6,35,69,35,69.6L35,69.6z M34,69.5c0-0.3,0-0.5-0.1-0.7
			c-0.1-0.1-0.2-0.2-0.4-0.2s-0.4,0.1-0.5,0.3v1.3c0.1,0.2,0.2,0.3,0.5,0.3c0.2,0,0.4-0.1,0.5-0.3C34,70,34,69.8,34,69.5z"/>
		<path class="st8" d="M36.6,71.2h-1v-4.6h1V71.2z"/>
		<path class="st8" d="M37.2,67.1c0-0.1,0.1-0.3,0.2-0.4s0.2-0.1,0.4-0.1s0.3,0,0.4,0.1s0.2,0.2,0.2,0.4s-0.1,0.3-0.2,0.4
			s-0.2,0.1-0.4,0.1s-0.3,0-0.4-0.1S37.2,67.3,37.2,67.1z M38.3,71.2h-1v-3.3h1V71.2z"/>
		<path class="st8" d="M40.3,70.5c0.1,0,0.3,0,0.3-0.1c0.1-0.1,0.1-0.2,0.1-0.3h1c0,0.4-0.1,0.7-0.4,0.9c-0.3,0.2-0.6,0.3-1,0.3
			c-0.5,0-0.8-0.1-1.1-0.4s-0.4-0.7-0.4-1.2l0,0c0-0.3,0.1-0.6,0.2-0.9s0.3-0.4,0.5-0.6c0.2-0.1,0.5-0.2,0.8-0.2
			c0.4,0,0.8,0.1,1,0.4s0.4,0.6,0.4,1h-1c0-0.2,0-0.3-0.1-0.4s-0.2-0.1-0.3-0.1c-0.3,0-0.4,0.2-0.5,0.5c0,0.1,0,0.3,0,0.4
			c0,0.3,0,0.6,0.1,0.7C40,70.4,40.1,70.5,40.3,70.5z"/>
		<path class="st8" d="M45.3,70.3c0-0.1,0-0.2-0.1-0.2s-0.3-0.1-0.5-0.2s-0.5-0.1-0.6-0.2c-0.2-0.1-0.3-0.2-0.4-0.3
			c-0.1-0.1-0.1-0.3-0.1-0.4c0-0.3,0.1-0.5,0.4-0.7s0.6-0.3,1-0.3s0.8,0.1,1,0.3c0.3,0.2,0.4,0.5,0.4,0.8h-1c0-0.3-0.1-0.4-0.4-0.4
			c-0.1,0-0.2,0-0.3,0.1s-0.1,0.1-0.1,0.2s0,0.2,0.1,0.2s0.2,0.1,0.4,0.1s0.4,0.1,0.5,0.1c0.5,0.2,0.7,0.5,0.7,0.9
			c0,0.3-0.1,0.5-0.4,0.7c-0.3,0.2-0.6,0.3-1,0.3c-0.3,0-0.5,0-0.7-0.2c-0.2-0.1-0.4-0.2-0.5-0.4c-0.1-0.2-0.2-0.4-0.2-0.5h0.9
			c0,0.2,0.1,0.3,0.2,0.3s0.2,0.1,0.4,0.1c0.1,0,0.2,0,0.3-0.1C45.3,70.5,45.3,70.4,45.3,70.3z"/>
		<path class="st8" d="M48.7,70.9c-0.2,0.3-0.5,0.4-0.9,0.4S47.2,71.2,47,71s-0.3-0.5-0.3-0.9V68h1v2.1c0,0.3,0.1,0.4,0.4,0.4
			c0.2,0,0.4-0.1,0.5-0.2V68h1v3.3h-1L48.7,70.9z"/>
		<path class="st8" d="M53.3,69.6c0,0.5-0.1,0.9-0.3,1.2c-0.2,0.3-0.5,0.5-0.9,0.5c-0.3,0-0.5-0.1-0.7-0.3v1.5h-1V68h0.9v0.3
			c0.2-0.2,0.5-0.4,0.8-0.4c0.4,0,0.7,0.1,0.9,0.4S53.3,69,53.3,69.6L53.3,69.6z M52.3,69.5c0-0.6-0.2-0.9-0.5-0.9
			c-0.2,0-0.4,0.1-0.5,0.3v1.3c0.1,0.2,0.3,0.3,0.5,0.3c0.3,0,0.5-0.3,0.5-0.8V69.5z"/>
		<path class="st8" d="M56.8,69.6c0,0.5-0.1,0.9-0.3,1.2c-0.2,0.3-0.5,0.5-0.9,0.5c-0.3,0-0.5-0.1-0.7-0.3v1.5h-1V68h0.9v0.3
			c0.2-0.2,0.5-0.4,0.8-0.4c0.4,0,0.7,0.1,0.9,0.4C56.6,68.6,56.8,69,56.8,69.6L56.8,69.6z M55.7,69.5c0-0.6-0.2-0.9-0.5-0.9
			c-0.2,0-0.4,0.1-0.5,0.3v1.3c0.1,0.2,0.3,0.3,0.5,0.3c0.3,0,0.5-0.3,0.5-0.8V69.5z"/>
		<path class="st8" d="M58.3,71.2h-1v-4.6h1V71.2z"/>
		<path class="st8" d="M60.2,69.8l0.5-1.8h1.1l-1.3,3.8l-0.1,0.1c-0.2,0.4-0.5,0.6-1,0.6c-0.1,0-0.3,0-0.4-0.1v-0.7h0.1
			c0.1,0,0.3,0,0.3-0.1c0.1,0,0.1-0.1,0.2-0.2l0.1-0.2l-1.1-3.3h1.1L60.2,69.8z"/>
	</g>
	<g id="Layer_2_1_">
	</g>
	<g id="Layer_3">
	</g>
</g>
<g id="Layer_2_2_">
</g>
</svg>
