<?xml version="1.0" encoding="utf-8"?>
<!-- Generator: Adobe Illustrator 25.0.1, SVG Export Plug-In . SVG Version: 6.00 Build 0)  -->
<svg version="1.1" id="Layer_1" xmlns="http://www.w3.org/2000/svg" xmlns:xlink="http://www.w3.org/1999/xlink" x="0px" y="0px"
	 viewBox="0 0 120.2 123.7" style="enable-background:new 0 0 120.2 123.7;" xml:space="preserve">
<style type="text/css">
	.st0{fill:#A00404;}
	.st1{fill:#C11A1A;}
	.st2{fill:#751010;}
	.st3{fill:#540A0A;}
	.st4{fill:#DD3E3E;}
	.st5{fill:#FFFFFF;}
	.st6{fill:url(#SVGID_1_);}
</style>
<path id="_x30_" class="st0" d="M60.1,2.6c5,0,10,0.6,14.8,1.9L60.1,62.1l0,0V2.6z"/>
<path id="_x31_" class="st1" d="M74.9,4.4C81,6,86.8,8.5,92,11.8L60.1,62.1l0,0L74.9,4.4z"/>
<path id="_x32_" class="st2" d="M92,11.8c21.8,13.8,32.2,40.1,25.8,65.1L60.1,62.1l0,0L92,11.8z"/>
<path id="_x33_" class="st3" d="M117.8,76.9c-6.4,25-28.2,43-53.9,44.6l-3.7-59.4l0,0L117.8,76.9z"/>
<path id="_x34_" class="st4" d="M63.9,121.5C31,123.6,2.8,98.7,0.7,65.9S23.6,4.8,56.4,2.7c1.2-0.1,2.5-0.1,3.7-0.1l0,59.5l0,0
	L63.9,121.5z"/>
<g>
	<path class="st5" d="M65,17.4h0.3V18H65v0.7h-0.8V18h-1.3l0-0.5l1.3-2.1v0H65V17.4z M63.6,17.4h0.6v-1l0,0.1L63.6,17.4z"/>
	<path class="st5" d="M65.6,16.1c0-0.2,0.1-0.4,0.2-0.5c0.1-0.1,0.3-0.2,0.5-0.2c0.2,0,0.4,0.1,0.5,0.2c0.1,0.1,0.2,0.3,0.2,0.5v0.2
		c0,0.2-0.1,0.4-0.2,0.5c-0.1,0.1-0.3,0.2-0.5,0.2c-0.2,0-0.4-0.1-0.5-0.2c-0.1-0.1-0.2-0.3-0.2-0.5V16.1z M66.1,16.2
		c0,0.1,0,0.1,0.1,0.2c0,0,0.1,0.1,0.2,0.1c0.2,0,0.2-0.1,0.2-0.3v-0.1c0-0.1,0-0.1-0.1-0.2c0-0.1-0.1-0.1-0.2-0.1
		c-0.1,0-0.1,0-0.2,0.1c0,0-0.1,0.1-0.1,0.2V16.2z M66.5,18.5l-0.4-0.2l1.6-2.6l0.4,0.2L66.5,18.5z M67.2,17.9
		c0-0.2,0.1-0.4,0.2-0.5c0.1-0.1,0.3-0.2,0.5-0.2c0.2,0,0.4,0.1,0.5,0.2c0.1,0.1,0.2,0.3,0.2,0.5v0.2c0,0.2-0.1,0.4-0.2,0.5
		c-0.1,0.1-0.3,0.2-0.5,0.2c-0.2,0-0.4-0.1-0.5-0.2c-0.1-0.1-0.2-0.3-0.2-0.5V17.9z M67.7,18.1c0,0.1,0,0.1,0.1,0.2
		c0,0.1,0.1,0.1,0.2,0.1c0.1,0,0.2-0.1,0.2-0.2l0-0.2c0-0.1,0-0.1-0.1-0.2c0,0-0.1-0.1-0.2-0.1c-0.1,0-0.1,0-0.2,0.1
		c0,0-0.1,0.1-0.1,0.2V18.1z"/>
</g>
<g>
	<path class="st5" d="M76.3,19.4l0.2-1.7h1.9v0.6h-1.3L77.1,19c0.1,0,0.1-0.1,0.2-0.1c0.1,0,0.2,0,0.3,0c0.3,0,0.6,0.1,0.8,0.3
		c0.2,0.2,0.3,0.5,0.3,0.8c0,0.2,0,0.4-0.1,0.6c-0.1,0.2-0.2,0.3-0.4,0.4c-0.2,0.1-0.4,0.1-0.6,0.1c-0.2,0-0.4,0-0.6-0.1
		c-0.2-0.1-0.3-0.2-0.4-0.4c-0.1-0.2-0.2-0.3-0.2-0.5H77c0,0.1,0,0.2,0.1,0.3c0.1,0.1,0.2,0.1,0.3,0.1c0.3,0,0.4-0.2,0.4-0.6
		c0-0.4-0.2-0.5-0.5-0.5c-0.2,0-0.3,0.1-0.4,0.2L76.3,19.4z"/>
	<path class="st5" d="M79,18.4c0-0.2,0.1-0.4,0.2-0.5c0.1-0.1,0.3-0.2,0.5-0.2c0.2,0,0.4,0.1,0.5,0.2c0.1,0.1,0.2,0.3,0.2,0.5v0.2
		c0,0.2-0.1,0.4-0.2,0.5c-0.1,0.1-0.3,0.2-0.5,0.2c-0.2,0-0.4-0.1-0.5-0.2c-0.1-0.1-0.2-0.3-0.2-0.5V18.4z M79.5,18.5
		c0,0.1,0,0.1,0.1,0.2c0,0,0.1,0.1,0.2,0.1c0.2,0,0.2-0.1,0.2-0.3v-0.1c0-0.1,0-0.1-0.1-0.2c0-0.1-0.1-0.1-0.2-0.1
		c-0.1,0-0.1,0-0.2,0.1c0,0-0.1,0.1-0.1,0.2V18.5z M79.9,20.8l-0.4-0.2l1.6-2.6l0.4,0.2L79.9,20.8z M80.6,20.2
		c0-0.2,0.1-0.4,0.2-0.5s0.3-0.2,0.5-0.2c0.2,0,0.4,0.1,0.5,0.2c0.1,0.1,0.2,0.3,0.2,0.5v0.2c0,0.2-0.1,0.4-0.2,0.5
		c-0.1,0.1-0.3,0.2-0.5,0.2c-0.2,0-0.4-0.1-0.5-0.2c-0.1-0.1-0.2-0.3-0.2-0.5V20.2z M81.1,20.4c0,0.1,0,0.1,0.1,0.2
		c0,0.1,0.1,0.1,0.2,0.1c0.1,0,0.2-0.1,0.2-0.2l0-0.2c0-0.1,0-0.1-0.1-0.2c0,0-0.1-0.1-0.2-0.1c-0.1,0-0.1,0-0.2,0.1
		c0,0-0.1,0.1-0.1,0.2V20.4z"/>
</g>
<g>
	<path class="st5" d="M89.4,52.6h-4.6v-1l2.1-2.2c0.5-0.6,0.8-1.1,0.8-1.4c0-0.3-0.1-0.5-0.2-0.7c-0.1-0.1-0.3-0.2-0.5-0.2
		c-0.2,0-0.4,0.1-0.6,0.3c-0.1,0.2-0.2,0.4-0.2,0.7h-1.5c0-0.4,0.1-0.8,0.3-1.1c0.2-0.3,0.5-0.6,0.8-0.8c0.4-0.2,0.8-0.3,1.2-0.3
		c0.7,0,1.3,0.2,1.7,0.5c0.4,0.3,0.6,0.8,0.6,1.4c0,0.3,0,0.5-0.1,0.8c-0.1,0.2-0.2,0.5-0.5,0.8c-0.2,0.3-0.5,0.6-1,1.1l-0.9,1h2.6
		V52.6z"/>
	<path class="st5" d="M94.8,49.9c0,0.9-0.2,1.6-0.6,2.1s-1,0.7-1.7,0.7c-0.7,0-1.3-0.2-1.7-0.7c-0.4-0.5-0.6-1.2-0.6-2.1v-1.2
		c0-0.9,0.2-1.6,0.6-2.1c0.4-0.5,1-0.7,1.7-0.7c0.7,0,1.3,0.2,1.7,0.7c0.4,0.5,0.6,1.2,0.6,2.1V49.9z M93.2,48.5
		c0-0.5-0.1-0.8-0.2-1.1c-0.1-0.2-0.3-0.4-0.6-0.4c-0.3,0-0.5,0.1-0.6,0.3c-0.1,0.2-0.2,0.6-0.2,1v1.7c0,0.5,0.1,0.9,0.2,1.1
		c0.1,0.2,0.3,0.3,0.6,0.3c0.3,0,0.5-0.1,0.6-0.3c0.1-0.2,0.2-0.6,0.2-1.1V48.5z"/>
	<path class="st5" d="M95.6,47.2c0-0.4,0.1-0.7,0.4-1c0.3-0.3,0.6-0.4,1.1-0.4c0.5,0,0.8,0.1,1.1,0.4c0.3,0.3,0.4,0.6,0.4,1v0.3
		c0,0.4-0.1,0.7-0.4,1c-0.3,0.2-0.6,0.4-1.1,0.4c-0.4,0-0.8-0.1-1.1-0.4s-0.4-0.6-0.4-1V47.2z M96.6,47.6c0,0.2,0,0.3,0.1,0.4
		c0.1,0.1,0.2,0.1,0.4,0.1c0.3,0,0.5-0.2,0.5-0.6v-0.3c0-0.2,0-0.3-0.1-0.4s-0.2-0.2-0.4-0.2c-0.1,0-0.3,0-0.4,0.1
		c-0.1,0.1-0.1,0.2-0.1,0.4V47.6z M97.4,52.1l-0.7-0.4l3.2-5.2l0.7,0.4L97.4,52.1z M98.7,51c0-0.4,0.1-0.7,0.4-1
		c0.3-0.2,0.6-0.4,1.1-0.4c0.5,0,0.8,0.1,1.1,0.4c0.3,0.2,0.4,0.6,0.4,1v0.3c0,0.4-0.1,0.7-0.4,1c-0.3,0.2-0.6,0.4-1.1,0.4
		c-0.4,0-0.8-0.1-1.1-0.4c-0.3-0.2-0.4-0.6-0.4-1V51z M99.7,51.3c0,0.1,0,0.3,0.1,0.4c0.1,0.1,0.2,0.2,0.4,0.2
		c0.3,0,0.5-0.1,0.5-0.4l0-0.5c0-0.2,0-0.3-0.1-0.4c-0.1-0.1-0.2-0.1-0.4-0.1c-0.1,0-0.3,0-0.4,0.1c-0.1,0.1-0.1,0.2-0.1,0.4V51.3z"
		/>
</g>
<g>
	<path class="st5" d="M77.8,91.8h-4.6v-1l2.1-2.2c0.5-0.6,0.8-1.1,0.8-1.4c0-0.3-0.1-0.5-0.2-0.7c-0.1-0.1-0.3-0.2-0.5-0.2
		c-0.2,0-0.4,0.1-0.6,0.3c-0.1,0.2-0.2,0.4-0.2,0.7h-1.5c0-0.4,0.1-0.8,0.3-1.1c0.2-0.3,0.5-0.6,0.8-0.8c0.4-0.2,0.8-0.3,1.2-0.3
		c0.7,0,1.3,0.2,1.7,0.5s0.6,0.8,0.6,1.4c0,0.3,0,0.5-0.1,0.8c-0.1,0.2-0.2,0.5-0.5,0.8c-0.2,0.3-0.5,0.6-1,1.1l-0.9,1h2.6V91.8z"/>
	<path class="st5" d="M83.2,89.1c0,0.9-0.2,1.6-0.6,2.1c-0.4,0.5-1,0.7-1.7,0.7c-0.7,0-1.3-0.2-1.7-0.7c-0.4-0.5-0.6-1.2-0.6-2.1
		v-1.2c0-0.9,0.2-1.6,0.6-2.1c0.4-0.5,1-0.7,1.7-0.7c0.7,0,1.3,0.2,1.7,0.7c0.4,0.5,0.6,1.2,0.6,2.1V89.1z M81.7,87.7
		c0-0.5-0.1-0.8-0.2-1.1c-0.1-0.2-0.3-0.4-0.6-0.4c-0.3,0-0.5,0.1-0.6,0.3c-0.1,0.2-0.2,0.6-0.2,1v1.7c0,0.5,0.1,0.9,0.2,1.1
		c0.1,0.2,0.3,0.3,0.6,0.3c0.3,0,0.5-0.1,0.6-0.3c0.1-0.2,0.2-0.6,0.2-1.1V87.7z"/>
	<path class="st5" d="M84,86.5c0-0.4,0.1-0.7,0.4-1c0.3-0.3,0.6-0.4,1.1-0.4c0.5,0,0.8,0.1,1.1,0.4c0.3,0.3,0.4,0.6,0.4,1v0.3
		c0,0.4-0.1,0.7-0.4,1c-0.3,0.2-0.6,0.4-1.1,0.4c-0.4,0-0.8-0.1-1.1-0.4c-0.3-0.2-0.4-0.6-0.4-1V86.5z M85,86.8c0,0.2,0,0.3,0.1,0.4
		c0.1,0.1,0.2,0.1,0.4,0.1c0.3,0,0.5-0.2,0.5-0.6v-0.3c0-0.2,0-0.3-0.1-0.4c-0.1-0.1-0.2-0.2-0.4-0.2c-0.1,0-0.3,0-0.4,0.1
		c-0.1,0.1-0.1,0.2-0.1,0.4V86.8z M85.8,91.3L85.1,91l3.2-5.2l0.7,0.4L85.8,91.3z M87.2,90.2c0-0.4,0.1-0.7,0.4-1
		c0.3-0.2,0.6-0.4,1.1-0.4c0.5,0,0.8,0.1,1.1,0.4c0.3,0.2,0.4,0.6,0.4,1v0.3c0,0.4-0.1,0.7-0.4,1c-0.3,0.2-0.6,0.4-1.1,0.4
		c-0.4,0-0.8-0.1-1.1-0.4c-0.3-0.2-0.4-0.6-0.4-1V90.2z M88.2,90.6c0,0.1,0,0.3,0.1,0.4c0.1,0.1,0.2,0.2,0.4,0.2
		c0.3,0,0.5-0.1,0.5-0.4l0-0.5c0-0.2,0-0.3-0.1-0.4c-0.1-0.1-0.2-0.1-0.4-0.1c-0.1,0-0.3,0-0.4,0.1c-0.1,0.1-0.1,0.2-0.1,0.4V90.6z"
		/>
</g>
<g>
	<path class="st5" d="M22.5,64.1l0.4-3.4h3.9v1.2h-2.6L24,63.2c0.1-0.1,0.3-0.1,0.4-0.2c0.2,0,0.4-0.1,0.5-0.1
		c0.7,0,1.2,0.2,1.5,0.6c0.4,0.4,0.5,0.9,0.5,1.6c0,0.4-0.1,0.8-0.3,1.2c-0.2,0.3-0.5,0.6-0.8,0.8c-0.3,0.2-0.8,0.3-1.2,0.3
		c-0.4,0-0.8-0.1-1.2-0.3c-0.4-0.2-0.7-0.4-0.9-0.7s-0.3-0.6-0.3-1h1.5c0,0.2,0.1,0.4,0.2,0.6c0.1,0.1,0.3,0.2,0.6,0.2
		c0.5,0,0.8-0.4,0.8-1.1c0-0.7-0.3-1.1-0.9-1.1c-0.4,0-0.6,0.1-0.8,0.3L22.5,64.1z"/>
	<path class="st5" d="M31.2,67.4h-1.5v-4.9l-1.5,0.4v-1.2l2.9-1h0.1V67.4z"/>
	<path class="st5" d="M33.2,62c0-0.4,0.1-0.7,0.4-1c0.3-0.3,0.6-0.4,1.1-0.4c0.5,0,0.8,0.1,1.1,0.4c0.3,0.3,0.4,0.6,0.4,1v0.3
		c0,0.4-0.1,0.7-0.4,1c-0.3,0.2-0.6,0.4-1.1,0.4c-0.4,0-0.8-0.1-1.1-0.4c-0.3-0.2-0.4-0.6-0.4-1V62z M34.2,62.3c0,0.2,0,0.3,0.1,0.4
		c0.1,0.1,0.2,0.1,0.4,0.1c0.3,0,0.5-0.2,0.5-0.6V62c0-0.2,0-0.3-0.1-0.4c-0.1-0.1-0.2-0.2-0.4-0.2c-0.1,0-0.3,0-0.4,0.1
		c-0.1,0.1-0.1,0.2-0.1,0.4V62.3z M35,66.9l-0.7-0.4l3.2-5.2l0.7,0.4L35,66.9z M36.4,65.7c0-0.4,0.1-0.7,0.4-1
		c0.3-0.2,0.6-0.4,1.1-0.4c0.5,0,0.8,0.1,1.1,0.4c0.3,0.2,0.4,0.6,0.4,1v0.3c0,0.4-0.1,0.7-0.4,1c-0.3,0.2-0.6,0.4-1.1,0.4
		c-0.4,0-0.8-0.1-1.1-0.4c-0.3-0.2-0.4-0.6-0.4-1V65.7z M37.4,66.1c0,0.1,0,0.3,0.1,0.4c0.1,0.1,0.2,0.2,0.4,0.2
		c0.3,0,0.5-0.1,0.5-0.4l0-0.5c0-0.2,0-0.3-0.1-0.4c-0.1-0.1-0.2-0.1-0.4-0.1c-0.1,0-0.3,0-0.4,0.1c-0.1,0.1-0.1,0.2-0.1,0.4V66.1z"
		/>
</g>
<linearGradient id="SVGID_1_" gradientUnits="userSpaceOnUse" x1="59.828" y1="37.4162" x2="60.4242" y2="87.2005">
	<stop  offset="0" style="stop-color:#FFFFFF"/>
	<stop  offset="1" style="stop-color:#454545"/>
</linearGradient>
<circle class="st6" cx="60.1" cy="62.1" r="10.2"/>
<path class="st0" d="M60.1,53.7c-4.7,0-8.5,3.8-8.5,8.5c0,4.7,3.8,8.5,8.5,8.5c4.7,0,8.5-3.8,8.5-8.5C68.6,57.5,64.8,53.7,60.1,53.7
	z M61.5,60.4c0-0.5,0.4-0.9,0.9-1c0.3,0,0.6,0.1,0.8,0.3c0.1,0.1,0.2,0.3,0.3,0.5c0.3,0.6,0.7,1.1,1,1.7c0,0,0,0,0,0.1v-2.5
	c0,0,0,0,0,0h0.6c0,0,0.1,0,0.1,0.1v4.2c0,0.1,0,0.1-0.1,0.2c-0.1,0-0.1,0-0.2,0c0-0.1-0.1-0.1-0.1-0.2c-0.7-1.1-1.3-2.3-2-3.4
	c0-0.1-0.1-0.1-0.2-0.2c-0.2-0.1-0.4-0.1-0.5,0.1c0,0,0,0.1-0.1,0.2v3.4c0,0,0,0.1,0,0.1c0,0.1-0.1,0.1-0.2,0.1h-1
	c-0.2,0-0.4,0-0.7,0c-0.8,0-1.4-0.5-1.6-1.3c-0.3-0.9,0.2-1.9,1.2-2.2c0,0,0.1,0,0.1,0c0.1,0,0.2,0,0.4,0h0.8c0,0,0.1,0,0.1,0.1
	c0,0.2,0,0.4,0,0.5c0,0,0,0.1-0.1,0.1c-0.3,0-0.6,0-0.9,0c-0.5,0-1,0.4-1,0.9c-0.1,0.6,0.3,1.2,0.9,1.3c0,0,0,0,0,0
	c0.1,0,0.1,0,0.2,0h1.1c0-0.2,0-1.7,0-1.8V60.4z M66.1,62.8c0,0.3,0,0.7,0,1c0,0.4-0.2,0.7-0.5,0.8c-0.3,0.2-0.8,0.2-1.1-0.1
	c-0.2-0.2-0.4-0.4-0.5-0.6c-0.3-0.6-0.7-1.2-1-1.7c0,0,0,0,0,0v1.6c0,0.1,0,0.3-0.1,0.4c-0.1,0.4-0.4,0.6-0.8,0.6
	c-0.1,0-0.2,0-0.3,0h-0.8c-0.2,0-0.6,0-1.1,0h-1.8c-0.7,0-1.4,0-1.6,0c-1.3,0-2.3-1-2.5-2.2c-0.2-1.4,0.7-2.8,2.2-3c0,0,0,0,0,0
	c0.1,0,0.3,0,0.4,0h0.8c0,0,0.1,0,0.1,0.1c0,0.2,0,0.4,0,0.5c0,0,0,0,0,0.1h-0.2c-0.1,0-0.2,0-0.3,0c-0.2,0-0.4,0-0.6,0
	c-0.9,0.1-1.6,0.8-1.8,1.7c-0.2,1.1,0.6,2.1,1.7,2.3c0.1,0,0.2,0,0.3,0h1.8c-0.1-0.1-0.1-0.1-0.2-0.2c-0.5,0-1.1,0-1.6,0
	c-0.8,0-1.4-0.5-1.6-1.3c-0.3-0.9,0.3-1.9,1.2-2.2c0,0,0.1,0,0.1,0c0.1,0,0.2,0,0.4,0h0.8c0.1,0,0.1,0,0.1,0.1v0.5
	c0,0.1,0,0.1-0.1,0.1c-0.3,0-0.6,0-0.9,0c-0.5,0-1,0.4-1,0.9c-0.1,0.6,0.3,1.2,0.9,1.3l0,0c0.1,0,0.1,0,0.2,0h1.1
	c-0.1-0.2-0.2-0.5-0.2-0.7c-0.2-1.4,0.7-2.8,2.2-3c0,0,0,0,0,0c0.1,0,0.3,0,0.4,0c0.2,0,0.3,0,0.5,0h0.3c0.1,0,0.1,0,0.1,0.1
	c0,0.2,0,0.4,0,0.5v0.1h-0.4c-0.2,0-0.4,0-0.6,0c-0.9,0.1-1.6,0.8-1.8,1.7C58.2,63,58.9,64,60,64.2c0.1,0,0.2,0,0.3,0h1.6
	c0.2,0,0.4-0.2,0.4-0.4v-3.4c0-0.1,0.1-0.1,0.2-0.1c0,0,0,0,0.1,0c0,0,0.1,0.1,0.1,0.1c0.2,0.3,0.4,0.6,0.6,1c0.5,0.8,1,1.7,1.4,2.5
	c0.1,0.1,0.2,0.2,0.3,0.2c0.2,0,0.4-0.1,0.4-0.3c0,0,0,0,0,0v-4.3c0-0.1,0-0.1,0.1-0.1H66c0.1,0,0.1,0,0.1,0.1V62.8z"/>
</svg>
