<svg xmlns="http://www.w3.org/2000/svg" width="112" height="61.347" viewBox="0 0 112 61.347">
  <g id="Group_55" data-name="Group 55" transform="translate(-49 -31.922)">
    <g id="Group_1" data-name="Group 1" transform="translate(49 31.922)">
      <path id="Path_1" data-name="Path 1" d="M110.99,32.416V2.065c0-.655,0-.665-.665-.665h-4.808c-.655,0-.655,0-.655.675V41.009a6.19,6.19,0,0,1-.041.87,3.291,3.291,0,0,1-3.928,2.854,4.055,4.055,0,0,1-2.742-2.189q-6.706-11.554-13.411-23.1c-1.749-3.018-3.488-6.046-5.268-9.053A3.3,3.3,0,0,0,78.4,9.277a1.29,1.29,0,0,0-1.944,1,3.451,3.451,0,0,0-.02.563V40.989c0,.256,0,.511-.02.767h0a3.785,3.785,0,0,1-4,4H57.541a18.423,18.423,0,0,1-1.9-36.765c2.742-.215,5.514-.082,8.276-.1h1.442c.01-.235.031-.4.031-.563,0-1.667-.01-3.335.01-5,.01-.45-.113-.583-.573-.573-2.557.02-5.115-.02-7.662.02a25.713,25.713,0,0,0-3.764.307A24.573,24.573,0,0,0,35.087,37.715h-1.6c-2.864,0-5.729.01-8.583,0a11.711,11.711,0,0,1-1.985-.153A10.343,10.343,0,0,1,24.11,17.031c2.639-.082,5.278-.031,7.918-.02.46,0,.583-.133.573-.583q-.031-2.5,0-5c.01-.43-.092-.593-.563-.583-2.537.02-5.074-.02-7.611.031a16.923,16.923,0,0,0-3.294.368,16.474,16.474,0,0,0,2.834,32.581c4.818.072,10.271.031,15.2.02A25.549,25.549,0,0,0,41.153,45.8H24.714a18.423,18.423,0,0,1-1.9-36.765c2.742-.215,5.514-.082,8.276-.1h1.442c.01-.235.031-.4.031-.563,0-1.667-.01-3.335.01-5,.01-.45-.113-.583-.573-.573-2.557.02-5.115-.02-7.662.02a25.713,25.713,0,0,0-3.764.307A24.557,24.557,0,0,0,23.66,51.893c5.36.164,36.561.041,41.921.031v-.01c2.322-.01,4.644-.041,6.977-.041a15.681,15.681,0,0,0,2.5-.184,8.069,8.069,0,0,0,6.966-5.933,13.124,13.124,0,0,0,.511-3.621c.01-4.665.02-9.882.02-14.547v-.511a.515.515,0,0,1,.246.2q4.68,8.056,9.36,16.122a16.917,16.917,0,0,0,4.389,5.381,8.914,8.914,0,0,0,10.025.737,8.757,8.757,0,0,0,4.4-7.867C111.031,38.574,110.99,35.5,110.99,32.416Z" transform="translate(0.012 -1.268)" fill="#fff"/>
      <path id="Path_2" data-name="Path 2" d="M427.285,36.51c-2.864,0-7.836.01-10.7,0a11.711,11.711,0,0,1-1.985-.153,10.343,10.343,0,0,1,1.187-20.531c2.639-.082,5.279-.031,7.918-.02.46,0,.583-.133.573-.583q-.031-2.5,0-5c.01-.43-.092-.593-.563-.583-2.537.02-5.074-.02-7.611.031a16.923,16.923,0,0,0-3.294.368,16.488,16.488,0,0,0,2.854,32.6c5.3.082,10.6.02,15.9.01a1.759,1.759,0,0,0,1.708-1.289,3.358,3.358,0,0,0,.082-.91h0c.01-10.045.01-20.459.01-30.5a7.3,7.3,0,0,1,.02-.818,3.292,3.292,0,0,1,5.033-2.578,4.635,4.635,0,0,1,1.616,1.739q9.13,15.728,18.26,31.446a9.081,9.081,0,0,0,.962,1.442,1.4,1.4,0,0,0,1.7.471,1.441,1.441,0,0,0,.859-1.494V.808c0-.389-.092-.532-.511-.522-1.76.02-3.509.01-5.268.01-.112,0-.225.031-.4.051V23.917c-.184-.286-.286-.44-.379-.593Q450.68,15.437,446.1,7.56a19.157,19.157,0,0,0-3.222-4.45,9.572,9.572,0,0,0-7.2-2.987,8.815,8.815,0,0,0-8.46,8.91V19.508C427.234,20.92,427.285,35.088,427.285,36.51Z" transform="translate(-358.879 -0.114)" fill="#fff"/>
    </g>
    <text id="C_R_Y_P_T_O_-_C_U_R_R_E_N_C_Y_-_N_E_T_W_O_R_K_" data-name="C R Y P T O - C U R R E N C Y  -  N E T W O R K " transform="translate(49 92.27)" fill="#fff" font-size="5" font-family="SegoeUIBlack, Segoe UI"><tspan x="0" y="0" xml:space="preserve">C R Y P T O - C U R R E N C Y  -  N E T W O R K </tspan></text>
  </g>
</svg>
