<svg xmlns="http://www.w3.org/2000/svg" width="110.395" height="120.43" viewBox="0 0 110.395 120.43">
  <path id="icons8_stack_of_coins" d="M34.108,3A39.676,39.676,0,0,0,13.781,8.126C8.275,11.429,4,16.655,4,23.072a14.444,14.444,0,0,0,1.519,6.38A5.018,5.018,0,0,0,4,33.107V43.143a14.446,14.446,0,0,0,1.519,6.38A5.018,5.018,0,0,0,4,53.179V63.215A14.446,14.446,0,0,0,5.519,69.6,5.018,5.018,0,0,0,4,73.251V83.286a14.446,14.446,0,0,0,1.519,6.38A5.018,5.018,0,0,0,4,93.322v10.036C4,109.775,8.275,115,13.781,118.3a39.681,39.681,0,0,0,20.326,5.126A39.682,39.682,0,0,0,54.434,118.3,24.394,24.394,0,0,0,59.2,114.57,24.394,24.394,0,0,0,63.96,118.3a39.682,39.682,0,0,0,20.327,5.126,39.682,39.682,0,0,0,20.327-5.126c5.506-3.3,9.781-8.528,9.781-14.946V93.322a5.018,5.018,0,0,0-1.519-3.666,14.436,14.436,0,0,0,1.519-6.37V73.251a5.018,5.018,0,0,0-1.519-3.666,14.438,14.438,0,0,0,1.519-6.37c0-6.417-4.275-11.643-9.781-14.946a39.674,39.674,0,0,0-20.327-5.126A39.674,39.674,0,0,0,63.96,48.269c-.382.229-.7.536-1.068.784a14.341,14.341,0,0,0,1.323-5.91V33.107A5.018,5.018,0,0,0,62.7,29.442a14.438,14.438,0,0,0,1.519-6.37c0-6.417-4.275-11.642-9.781-14.946A39.677,39.677,0,0,0,34.108,3Zm0,10.036a30.474,30.474,0,0,1,15.162,3.695c3.575,2.145,4.91,4.444,4.91,6.341s-1.335,4.2-4.91,6.341a30.474,30.474,0,0,1-15.162,3.695,30.474,30.474,0,0,1-15.161-3.695c-3.575-2.145-4.91-4.444-4.91-6.341s1.335-4.2,4.91-6.341A30.474,30.474,0,0,1,34.108,13.036ZM14.036,38.145a39.777,39.777,0,0,0,20.072,5,39.778,39.778,0,0,0,20.072-5v5c0,1.9-1.335,4.2-4.91,6.341a30.48,30.48,0,0,1-15.162,3.695,30.48,30.48,0,0,1-15.161-3.695c-3.575-2.145-4.91-4.444-4.91-6.341ZM84.287,53.179a30.476,30.476,0,0,1,15.162,3.695c3.575,2.145,4.91,4.444,4.91,6.341s-1.335,4.2-4.91,6.341a30.476,30.476,0,0,1-15.162,3.695,30.476,30.476,0,0,1-15.162-3.695c-3.575-2.145-4.91-4.444-4.91-6.341s1.335-4.2,4.91-6.341A30.476,30.476,0,0,1,84.287,53.179ZM14.036,58.217a39.78,39.78,0,0,0,20.072,5,39.781,39.781,0,0,0,20.072-5v5c0,1.9-1.335,4.2-4.91,6.341a30.48,30.48,0,0,1-15.162,3.695,30.48,30.48,0,0,1-15.161-3.695c-3.575-2.145-4.91-4.444-4.91-6.341Zm0,20.072a39.78,39.78,0,0,0,20.072,5,39.781,39.781,0,0,0,20.072-5v5c0,1.9-1.335,4.2-4.91,6.341a30.48,30.48,0,0,1-15.162,3.695,30.48,30.48,0,0,1-15.161-3.695c-3.575-2.145-4.91-4.444-4.91-6.341Zm50.179,0a39.778,39.778,0,0,0,20.072,5,39.778,39.778,0,0,0,20.072-5v5c0,1.9-1.335,4.2-4.91,6.341a30.48,30.48,0,0,1-15.162,3.695,30.48,30.48,0,0,1-15.162-3.695c-3.575-2.145-4.91-4.444-4.91-6.341ZM14.036,98.36a39.78,39.78,0,0,0,20.072,5,39.781,39.781,0,0,0,20.072-5v5c0,1.9-1.335,4.2-4.91,6.341a30.48,30.48,0,0,1-15.162,3.695A30.48,30.48,0,0,1,18.946,109.7c-3.575-2.145-4.91-4.444-4.91-6.341Zm50.179,0a39.781,39.781,0,0,0,20.072,5,39.781,39.781,0,0,0,20.072-5v5c0,1.9-1.335,4.2-4.91,6.341a30.48,30.48,0,0,1-15.162,3.695A30.48,30.48,0,0,1,69.125,109.7c-3.575-2.145-4.91-4.444-4.91-6.341Z" transform="translate(-4 -3)" fill="#fff"/>
</svg>
