<?xml version="1.0" encoding="utf-8"?>
<svg xmlns="http://www.w3.org/2000/svg" viewBox="0 0 30 30" width="52" height="52">
  <path d="M9.5 3C6.012 3 4 5.721 4 9C4 10.104 4.5273438 11.214844 4.5273438 11.214844C4.3153438 11.336844 3.9666875 11.724109 4.0546875 12.412109C4.2186875 13.695109 4.7749062 14.019875 5.1289062 14.046875C5.2639062 15.244875 6.55 16.777 7 17L7 19C6 22 0 20 0 27L9 27C9 22.824 10.863594 20.989188 12.683594 19.992188C12.381594 19.731188 12.139 19.417 12 19L12 17C12.383 16.811 13.363375 15.676469 13.734375 14.605469C13.420375 14.107469 13.174312 13.479062 13.070312 12.664062C12.984312 11.987063 13.085969 11.399156 13.292969 10.910156C13.137969 10.371156 13 9.696 13 9C13 7.614 13.286828 6.3441875 13.798828 5.2421875C13.336828 4.7781875 12.743 4.5 12 4.5C12 4.5 11.626 3 9.5 3 z M 20.5 3.0019531C17.012 3.0009531 15 5.721 15 9C15 10.104 15.527344 11.214844 15.527344 11.214844C15.315344 11.336844 14.966688 11.724109 15.054688 12.412109C15.218687 13.695109 15.774906 14.019875 16.128906 14.046875C16.263906 15.244875 17.55 16.777 18 17L18 19C17 22 11 20 11 27L30 27C30 20 24 22 23 19L23 17C23.45 16.777 24.736094 15.245828 24.871094 14.048828C25.225094 14.021828 25.781312 13.695109 25.945312 12.412109C26.033313 11.723109 25.684656 11.336844 25.472656 11.214844C25.472656 11.214844 26 10.212953 26 9.0019531C26 6.5739531 25.047 4.5019531 23 4.5019531C23 4.5019531 22.626 3.0019531 20.5 3.0019531 z" fill="#FFFFFF" />
</svg>