<?xml version="1.0" encoding="utf-8"?>
<!-- Generator: Adobe Illustrator 25.0.1, SVG Export Plug-In . SVG Version: 6.00 Build 0)  -->
<svg version="1.1" id="Layer_1" xmlns="http://www.w3.org/2000/svg" xmlns:xlink="http://www.w3.org/1999/xlink" x="0px" y="0px"
	 viewBox="0 0 1080 1080" style="enable-background:new 0 0 1080 1080;" xml:space="preserve">
<style type="text/css">
	.st0{fill:#FFFFFF;}
</style>
<g id="Layer_1_1_">
	<path class="st0" d="M540,26.5c-137.2,0-266.5,53.1-363,150.5C26.5,326.6-15.9,549.7,69,744.5c4.4,9.7,14.2,15.9,24.8,15.9
		c3.5,0,7.1-0.9,10.6-1.8c13.3-6.2,19.5-21.2,14.2-34.5c-77-175.3-39-375.4,95.6-509.9C301.9,127.4,417,79.6,540,79.6
		c103.6,0,201.9,33.6,282.4,96.5l-46.9,5.3c-14.2,1.8-24.8,15.1-23,29.2c1.8,13.3,13.3,23,26.6,23h3.5l106.2-12.4
		c14.2-1.8,23.9-14.2,23-28.3l-6.2-100c-0.9-15.1-13.3-25.7-28.3-24.8c-15.1,0.9-25.7,13.3-24.8,28.3l1.8,36.3
		C764.9,64.6,655.1,26.5,540,26.5z M985.3,317.2c-3.5,0.1-7.1,0.9-10.6,2.4c-13.3,6.2-19.5,21.2-13.3,35.4
		c77,175.3,39.8,376.3-95.6,511.7c-87.6,85.9-202.7,133.7-325.8,133.7c-103.6,0-201.9-33.6-282.4-96.5l46.9-5.3
		c14.2-1.8,24.8-15.1,23-29.2c-1.8-14.2-15.1-24.8-29.2-23l-106.2,12.4c-14.2,1.8-23.9,14.2-23,28.3l6.2,100
		c0.9,14.2,12.4,24.8,26.6,24.8h1.8c15.1-0.9,25.7-13.3,24.8-28.3l-1.8-36.3c88.5,68.2,198.3,106.2,313.4,106.2
		c137.2,0,266.5-53.1,363-150.5c151.4-150.5,193-374.5,107.1-570.1C1005.5,322.9,995.8,316.9,985.3,317.2z"/>
	<g id="CCN" transform="translate(0)">
		<path id="Union_1" class="st0" d="M345.2,694.7c-71.6-2.5-131.5-55.2-143-125.9c-13.4-81.9,42.1-159.2,124-172.6h0.1
			c7.6-1.2,15.3-1.8,23-1.9c8.9-0.1,17.8-0.1,26.7-0.1c6.7,0,13.5,0,20.2,0c2.8-0.1,3.6,0.8,3.5,3.5c-0.1,10.2-0.1,20.4-0.1,30.6
			c0,1-0.1,2-0.2,3.4h-8.8c-5.2,0-10.4,0-15.6-0.1c-11.7-0.1-23.5-0.2-35.1,0.7c-51.5,4.7-93.2,43.9-101,95.1
			c-9.4,61.7,33,119.3,94.7,128.7c5.9,0.9,11.9,1.3,17.9,1.3h100.6c-4.3-3.8-8.3-7.8-12.1-12c-30.2,0.1-63.6,0.3-93.1-0.1
			c-43.3-1.5-80.8-30.5-93.1-72C238,520,268.3,463.8,321.6,447.9c2.7-0.8,5.4-1.5,8.1-2.1c6.6-1.4,13.4-2.2,20.2-2.3
			c9.3-0.2,18.6-0.2,27.9-0.2c6.2,0,12.5,0,18.7,0c2.9-0.1,3.5,0.9,3.4,3.6c-0.1,10.2-0.1,20.4,0,30.6c0.1,2.8-0.7,3.6-3.5,3.6
			c-16.2-0.1-32.3-0.4-48.5,0.1c-29.7,1.4-54.3,23.3-59.2,52.6c-5.9,34.4,17.1,67,51.5,73c0.2,0,0.3,0.1,0.5,0.1
			c4,0.7,8.1,1,12.1,0.9c17.5,0.1,35,0,52.5,0h9.8c-5.9-12.5-9.9-25.8-12.2-39.5c-13.4-81.9,42.1-159.1,124-172.5c0.1,0,0.1,0,0.2,0
			c7.6-1.2,15.3-1.8,23-1.9c8.9-0.2,17.8-0.1,26.8-0.1c6.7,0,13.4,0,20.1,0c2.8-0.1,3.6,0.8,3.5,3.5c-0.1,10.2-0.1,20.4-0.1,30.6
			c0,1-0.1,2-0.2,3.4h-8.8c-5.2,0-10.4,0-15.6-0.1c-11.7-0.1-23.5-0.2-35.1,0.7c-51.5,4.7-93.2,43.9-101,95.1
			c-9.4,61.7,33,119.3,94.7,128.7c5.9,0.9,11.9,1.3,17.9,1.3h91.1c12.8,0.7,23.7-9,24.5-21.8c0.1-0.9,0.1-1.8,0-2.7
			c0.1-1.6,0.1-3.1,0.1-4.7V443.4c-0.1-1.1,0-2.3,0.1-3.4c0.4-4.3,4.2-7.6,8.5-7.2c1.2,0.1,2.4,0.5,3.4,1.1c2.7,1.7,5,4.1,6.6,6.8
			c10.9,18.4,21.5,36.9,32.2,55.4c27.4,47.1,54.7,94.2,82.1,141.4c3.3,6.8,9.4,11.7,16.8,13.4c10.9,2.2,21.5-4.8,23.8-15.7
			c0.1-0.6,0.2-1.2,0.3-1.8c0.2-1.8,0.3-3.5,0.3-5.3V389.7c0-4.1,0-4.1,4-4.1h29.4c4.1,0,4.1,0.1,4.1,4.1v185.8
			c0,18.8,0.3,37.7-0.1,56.5c-0.3,20.7-8.8,37.4-26.9,48.2c-19.4,11.3-43.8,9.5-61.4-4.5c-11.1-9-20.3-20.2-26.9-32.9
			c-19-32.9-38.1-65.8-57.3-98.7c-0.4-0.6-0.9-1-1.5-1.2v3.1c0,28.6-0.1,60.5-0.1,89.1c0,7.5-1.1,15-3.1,22.2
			c-6.3,21.2-21.2,32.8-42.6,36.3c-5.1,0.8-10.2,1.2-15.3,1.1c-14.3,0-28.5,0.2-42.7,0.2v0.1c-19.9,0-98.2,0.3-163.9,0.3
			C395.4,695.2,358.1,695.1,345.2,694.7z M547.9,645.1c-43.3-1.5-80.8-30.5-93.1-72c-16-53.3,14.3-109.5,67.6-125.5
			c2.7-0.8,5.4-1.5,8.1-2.1c6.6-1.4,13.4-2.2,20.2-2.3c9.3-0.2,18.6-0.2,27.9-0.2c6.2,0,12.5,0,18.7,0c2.9-0.1,3.5,0.9,3.4,3.6
			c-0.1,10.2-0.1,20.4,0,30.6c0.1,2.8-0.7,3.6-3.5,3.6c-16.2-0.1-32.3-0.4-48.5,0.1c-29.7,1.4-54.3,23.3-59.2,52.6
			c-5.9,34.4,17.1,67,51.5,73c0.2,0,0.3,0.1,0.5,0.1c4,0.7,8.1,1,12.1,0.9c17.5,0.1,48,0,65.5,0c0-8.7-0.3-95.4-0.4-104.1v-64.1
			c-0.3-29.2,22.6-53.4,51.8-54.5c17.3-0.8,31.7,6.5,44.1,18.3c7.8,8.1,14.5,17.3,19.7,27.2c18.7,32.2,37.3,64.4,56,96.5
			c0.6,0.9,1.2,1.9,2.3,3.6V386.2c1.1-0.1,1.8-0.3,2.4-0.3c10.8,0,21.5,0.1,32.2-0.1c2.6-0.1,3.1,0.8,3.1,3.2v240.8
			c0.5,3.9-1.7,7.6-5.3,9.1c-3.7,1.6-8,0.4-10.4-2.9c-2.2-2.8-4.2-5.7-5.9-8.8c-37.3-64.1-74.6-128.3-111.8-192.5
			c-2.3-4.3-5.7-8-9.9-10.6c-9.4-5.9-21.9-3-27.8,6.4c-1.8,2.8-2.8,6.1-3,9.4c-0.1,1.7-0.2,3.3-0.1,5c0,61.5,0,125.2-0.1,186.7
			c0.1,1.9-0.1,3.7-0.5,5.6c-1.3,4.7-5.6,7.9-10.5,7.9c-19.9,0-39.7,0.2-59.6,0.2C573.1,645.3,560.5,645.3,547.9,645.1z"/>
	</g>
</g>
</svg>
