<svg xmlns="http://www.w3.org/2000/svg" width="51.619" height="43.678" viewBox="0 0 51.619 43.678">
  <path id="icons8-receive_cash" d="M45.678,4A5.935,5.935,0,0,0,40.54,7a11.945,11.945,0,0,1,6.9,8.62A5.94,5.94,0,0,0,45.678,4ZM35.751,9.956A7.941,7.941,0,1,0,43.692,17.9,7.941,7.941,0,0,0,35.751,9.956Zm-21.839,13.9a5.956,5.956,0,0,0-2.218.43L2,27.824V43.707l8.38-3.641a4,4,0,0,1,3.106-.035l18,7.352h.008a2.94,2.94,0,0,0,2.749-.1h.012l17.841-9.911,0,0a2.973,2.973,0,0,0-2.71-5.289v0L35.751,37.751H32.773a2.978,2.978,0,0,0,.923-5.809v0L16.436,24.412h-.023a5.956,5.956,0,0,0-2.5-.558Z" transform="translate(-2 -4)" fill="#f1fff3"/>
</svg>
