<?xml version="1.0" encoding="utf-8"?>
<svg xmlns="http://www.w3.org/2000/svg" viewBox="0 0 32 32" width="64" height="64">
  <path d="M8.875 3.59375L8.15625 4.28125L4.3125 8.15625L3.59375 8.875L4.3125 9.5625L10.0625 15.34375L9.40625 16L16 22.59375L16.65625 21.9375L22.40625 27.71875L23.125 28.40625L23.84375 27.71875L27.71875 23.8125L28.4375 23.125L21.65625 16.34375C22.273438 14.683594 21.921875 12.734375 20.59375 11.40625C19.6875 10.5 18.476563 10.0625 17.28125 10.0625C16.726563 10.0625 16.179688 10.183594 15.65625 10.375L9.59375 4.28125 Z M 8.875 6.40625L13.9375 11.46875L11.46875 13.9375L6.40625 8.875 Z M 17.28125 12.03125C17.960938 12.03125 18.664063 12.289063 19.1875 12.8125C20.234375 13.859375 20.234375 15.546875 19.1875 16.59375L16.28125 19.46875L16 19.75L12.25 16L15.28125 12.96875L15.40625 12.8125C15.476563 12.742188 15.550781 12.6875 15.625 12.625L15.8125 12.46875C16.253906 12.175781 16.773438 12.03125 17.28125 12.03125 Z M 6.0625 16.0625C3.335938 18.789063 3.335938 23.210938 6.0625 25.9375C8.789063 28.664063 13.210938 28.664063 15.9375 25.9375L14.53125 24.53125C12.570313 26.492188 9.429688 26.492188 7.46875 24.53125C5.507813 22.570313 5.507813 19.429688 7.46875 17.46875 Z M 20.53125 18.0625L25.59375 23.125L23.125 25.59375L18.0625 20.53125 Z M 8.53125 18.53125C7.171875 19.890625 7.171875 22.109375 8.53125 23.46875C9.890625 24.828125 12.109375 24.828125 13.46875 23.46875L12.0625 22.0625C11.46875 22.65625 10.53125 22.65625 9.9375 22.0625C9.34375 21.46875 9.34375 20.53125 9.9375 19.9375Z" fill="#FFFFFF" />
</svg>